<svg id="Capa_1" data-name="Capa 1" xmlns="http://www.w3.org/2000/svg" xmlns:xlink="http://www.w3.org/1999/xlink" viewBox="0 0 76.93 76.93"><defs><style>.cls-1{opacity:0.2;}.cls-2{fill:#fff;}.cls-3{fill:#f7f7f7;}.cls-4{fill:#efefef;}.cls-5{fill:#e6e6e6;}.cls-6{fill:#dedede;}.cls-7{fill:#d6d6d6;}.cls-8{fill:#cecece;}.cls-9{fill:#c5c5c5;}.cls-10{fill:#bdbdbd;}.cls-11{fill:#b5b5b5;}.cls-12{fill:#adadad;}.cls-13{fill:#a5a5a5;}.cls-14{fill:#9c9c9c;}.cls-15{fill:#949494;}.cls-16{fill:#8c8c8c;}.cls-17{fill:#848484;}.cls-18{fill:#7b7b7b;}.cls-19{fill:#737373;}.cls-20{fill:#6b6b6b;}.cls-21{fill:#636363;}.cls-22{fill:#5a5a5a;}.cls-23{fill:#525252;}.cls-24{fill:#4a4a4a;}.cls-25{fill:#424242;}.cls-26{fill:#3a3a3a;}.cls-27{fill:#313131;}.cls-28{fill:#292929;}.cls-29{fill:#212121;}.cls-30{fill:#191919;}.cls-31{fill:#101010;}.cls-32{fill:#080808;}.cls-33{stroke:#272425;stroke-width:0.13px;fill:url(#radial-gradient);}.cls-34{fill:#9a2430;}.cls-35{fill:#e5c13b;}.cls-36{opacity:0.5;fill:url(#linear-gradient);}</style><radialGradient id="radial-gradient" cx="29.33" cy="42.23" r="43.9" gradientTransform="translate(11.5 -0.35) scale(0.92 0.92)" gradientUnits="userSpaceOnUse"><stop offset="0" stop-color="#fff"/><stop offset="0.69" stop-color="#fafafa"/><stop offset="1" stop-color="#ccc"/></radialGradient><linearGradient id="linear-gradient" x1="38.41" y1="42.29" x2="38.49" y2="11.21" gradientUnits="userSpaceOnUse"><stop offset="0" stop-color="#fff" stop-opacity="0"/><stop offset="1" stop-color="#fff"/></linearGradient></defs><title>b-españa</title><g class="cls-1"><circle class="cls-2" cx="38.46" cy="38.46" r="38.46"/><circle class="cls-3" cx="38.46" cy="38.46" r="38.38"/><circle class="cls-4" cx="38.46" cy="38.46" r="38.3"/><circle class="cls-5" cx="38.46" cy="38.46" r="38.22"/><circle class="cls-6" cx="38.47" cy="38.46" r="38.13"/><circle class="cls-7" cx="38.47" cy="38.47" r="38.05"/><circle class="cls-8" cx="38.47" cy="38.47" r="37.97"/><circle class="cls-9" cx="38.47" cy="38.47" r="37.89"/><circle class="cls-10" cx="38.47" cy="38.47" r="37.8"/><circle class="cls-11" cx="38.47" cy="38.47" r="37.72"/><circle class="cls-12" cx="38.47" cy="38.47" r="37.64"/><circle class="cls-13" cx="38.47" cy="38.47" r="37.56"/><circle class="cls-14" cx="38.47" cy="38.47" r="37.47"/><circle class="cls-15" cx="38.47" cy="38.47" r="37.39"/><circle class="cls-16" cx="38.47" cy="38.47" r="37.31"/><circle class="cls-17" cx="38.47" cy="38.47" r="37.22"/><circle class="cls-18" cx="38.47" cy="38.47" r="37.14"/><circle class="cls-19" cx="38.47" cy="38.47" r="37.06"/><circle class="cls-20" cx="38.47" cy="38.47" r="36.98"/><circle class="cls-21" cx="38.47" cy="38.47" r="36.89"/><circle class="cls-22" cx="38.47" cy="38.47" r="36.81"/><circle class="cls-23" cx="38.47" cy="38.47" r="36.73"/><circle class="cls-24" cx="38.47" cy="38.47" r="36.65"/><circle class="cls-25" cx="38.47" cy="38.47" r="36.56"/><circle class="cls-26" cx="38.47" cy="38.47" r="36.48"/><circle class="cls-27" cx="38.47" cy="38.47" r="36.4"/><circle class="cls-28" cx="38.47" cy="38.47" r="36.32"/><circle class="cls-29" cx="38.47" cy="38.47" r="36.23"/><circle class="cls-30" cx="38.47" cy="38.47" r="36.15"/><circle class="cls-31" cx="38.47" cy="38.47" r="36.07"/><circle class="cls-32" cx="38.47" cy="38.47" r="35.98"/><circle cx="38.47" cy="38.47" r="35.9"/><circle class="cls-33" cx="38.47" cy="38.47" r="35.9"/></g><path class="cls-34" d="M39.91,4.77A36,36,0,0,0,9.54,21.17H70.29A36,36,0,0,0,39.91,4.77Z" transform="translate(-2.21 -2.5)"/><path class="cls-34" d="M39.91,77.56c12.7,0,23.88-7.4,30.38-16.4H9.54C16,70.17,27.21,77.56,39.91,77.56Z" transform="translate(-2.21 -2.5)"/><path class="cls-35" d="M70.29,21.17H9.54c-3.77,5-6,12.63-6,20a37,37,0,0,0,6,20H70.29a37,37,0,0,0,6-20C76.26,33.8,74.06,26.17,70.29,21.17Z" transform="translate(-2.21 -2.5)"/><ellipse class="cls-36" cx="38.46" cy="22.2" rx="29.06" ry="20.35"/></svg>