<svg id="Capa_1" data-name="Capa 1" xmlns="http://www.w3.org/2000/svg" xmlns:xlink="http://www.w3.org/1999/xlink" viewBox="0 0 76.93 76.93"><defs><style>.cls-1{opacity:0.2;}.cls-2{fill:#fff;}.cls-3{fill:#f7f7f7;}.cls-4{fill:#efefef;}.cls-5{fill:#e6e6e6;}.cls-6{fill:#dedede;}.cls-7{fill:#d6d6d6;}.cls-8{fill:#cecece;}.cls-9{fill:#c5c5c5;}.cls-10{fill:#bdbdbd;}.cls-11{fill:#b5b5b5;}.cls-12{fill:#adadad;}.cls-13{fill:#a5a5a5;}.cls-14{fill:#9c9c9c;}.cls-15{fill:#949494;}.cls-16{fill:#8c8c8c;}.cls-17{fill:#848484;}.cls-18{fill:#7b7b7b;}.cls-19{fill:#737373;}.cls-20{fill:#6b6b6b;}.cls-21{fill:#636363;}.cls-22{fill:#5a5a5a;}.cls-23{fill:#525252;}.cls-24{fill:#4a4a4a;}.cls-25{fill:#424242;}.cls-26{fill:#3a3a3a;}.cls-27{fill:#313131;}.cls-28{fill:#292929;}.cls-29{fill:#212121;}.cls-30{fill:#191919;}.cls-31{fill:#101010;}.cls-32{fill:#080808;}.cls-33{stroke:#272425;stroke-width:0.13px;fill:url(#radial-gradient);}.cls-34{fill:#f2f3f4;}.cls-35{fill:#39428f;}.cls-36{fill:#b72336;}.cls-37{opacity:0.5;fill:url(#linear-gradient);}</style><radialGradient id="radial-gradient" cx="41.55" cy="40.92" r="40.35" gradientTransform="translate(-3.08 -2.45)" gradientUnits="userSpaceOnUse"><stop offset="0" stop-color="#fff"/><stop offset="0.69" stop-color="#fafafa"/><stop offset="1" stop-color="#ccc"/></radialGradient><linearGradient id="linear-gradient" x1="38.06" y1="42.47" x2="38.14" y2="11.4" gradientUnits="userSpaceOnUse"><stop offset="0" stop-color="#fff" stop-opacity="0"/><stop offset="1" stop-color="#fff"/></linearGradient></defs><title>b-francia</title><g class="cls-1"><circle class="cls-2" cx="38.46" cy="38.46" r="38.46"/><circle class="cls-3" cx="38.47" cy="38.46" r="38.38"/><circle class="cls-4" cx="38.47" cy="38.46" r="38.3"/><circle class="cls-5" cx="38.47" cy="38.46" r="38.22"/><circle class="cls-6" cx="38.47" cy="38.46" r="38.13"/><circle class="cls-7" cx="38.47" cy="38.46" r="38.05"/><circle class="cls-8" cx="38.47" cy="38.46" r="37.97"/><circle class="cls-9" cx="38.47" cy="38.46" r="37.89"/><circle class="cls-10" cx="38.47" cy="38.47" r="37.8"/><circle class="cls-11" cx="38.47" cy="38.47" r="37.72"/><circle class="cls-12" cx="38.47" cy="38.47" r="37.64"/><circle class="cls-13" cx="38.47" cy="38.47" r="37.56"/><circle class="cls-14" cx="38.47" cy="38.47" r="37.47"/><circle class="cls-15" cx="38.47" cy="38.47" r="37.39"/><circle class="cls-16" cx="38.47" cy="38.47" r="37.31"/><circle class="cls-17" cx="38.47" cy="38.47" r="37.22"/><circle class="cls-18" cx="38.47" cy="38.47" r="37.14"/><circle class="cls-19" cx="38.47" cy="38.47" r="37.06"/><circle class="cls-20" cx="38.47" cy="38.47" r="36.98"/><circle class="cls-21" cx="38.47" cy="38.47" r="36.89"/><circle class="cls-22" cx="38.47" cy="38.47" r="36.81"/><circle class="cls-23" cx="38.47" cy="38.47" r="36.73"/><circle class="cls-24" cx="38.47" cy="38.47" r="36.65"/><circle class="cls-25" cx="38.47" cy="38.47" r="36.56"/><circle class="cls-26" cx="38.47" cy="38.47" r="36.48"/><circle class="cls-27" cx="38.47" cy="38.47" r="36.4"/><circle class="cls-28" cx="38.47" cy="38.47" r="36.32"/><circle class="cls-29" cx="38.47" cy="38.47" r="36.23"/><circle class="cls-30" cx="38.47" cy="38.47" r="36.15"/><circle class="cls-31" cx="38.47" cy="38.47" r="36.07"/><circle class="cls-32" cx="38.47" cy="38.47" r="35.98"/><circle cx="38.47" cy="38.47" r="35.9"/><circle class="cls-33" cx="38.47" cy="38.47" r="35.9"/></g><path class="cls-34" d="M22.17,9.18V72.76c6,3.09,12,5,18.51,5a39.1,39.1,0,0,0,19.49-5.6V9.76A39.75,39.75,0,0,0,40.68,4.53,40.75,40.75,0,0,0,22.17,9.18Z" transform="translate(-3.08 -2.5)"/><path class="cls-35" d="M10.2,20.93C6.43,26.44,4.47,33.78,4.47,41.15a38.53,38.53,0,0,0,5.61,20.22c3.16,4.47,5,5.67,12.09,11.39V9.18C18.54,11.79,13.36,16,10.2,20.93Z" transform="translate(-3.08 -2.5)"/><path class="cls-36" d="M71.53,61.37c3.77-6.43,5.92-12.85,5.92-20.22a36.48,36.48,0,0,0-5.9-20.22A31.63,31.63,0,0,0,60.17,9.76V72.17A35.13,35.13,0,0,0,71.53,61.37Z" transform="translate(-3.08 -2.5)"/><ellipse class="cls-37" cx="38.11" cy="22.38" rx="29.06" ry="20.35"/></svg>