<svg id="Capa_1" data-name="Capa 1" xmlns="http://www.w3.org/2000/svg" xmlns:xlink="http://www.w3.org/1999/xlink" viewBox="0 0 76.93 76.93"><defs><style>.cls-1{opacity:0.2;}.cls-2{fill:#fff;}.cls-3{fill:#f7f7f7;}.cls-4{fill:#efefef;}.cls-5{fill:#e6e6e6;}.cls-6{fill:#dedede;}.cls-7{fill:#d6d6d6;}.cls-8{fill:#cecece;}.cls-9{fill:#c5c5c5;}.cls-10{fill:#bdbdbd;}.cls-11{fill:#b5b5b5;}.cls-12{fill:#adadad;}.cls-13{fill:#a5a5a5;}.cls-14{fill:#9c9c9c;}.cls-15{fill:#949494;}.cls-16{fill:#8c8c8c;}.cls-17{fill:#848484;}.cls-18{fill:#7b7b7b;}.cls-19{fill:#737373;}.cls-20{fill:#6b6b6b;}.cls-21{fill:#636363;}.cls-22{fill:#5a5a5a;}.cls-23{fill:#525252;}.cls-24{fill:#4a4a4a;}.cls-25{fill:#424242;}.cls-26{fill:#3a3a3a;}.cls-27{fill:#313131;}.cls-28{fill:#292929;}.cls-29{fill:#212121;}.cls-30{fill:#191919;}.cls-31{fill:#101010;}.cls-32{fill:#080808;}.cls-33{stroke:#272425;stroke-width:0.13px;fill:url(#radial-gradient);}.cls-34{fill:#a12439;}.cls-35{fill:#313374;}.cls-36{opacity:0.5;fill:url(#linear-gradient);}</style><radialGradient id="radial-gradient" cx="30.79" cy="40.92" r="43.9" gradientTransform="translate(10.16 0.86) scale(0.92 0.92)" gradientUnits="userSpaceOnUse"><stop offset="0" stop-color="#fff"/><stop offset="0.69" stop-color="#fafafa"/><stop offset="1" stop-color="#ccc"/></radialGradient><linearGradient id="linear-gradient" x1="38.41" y1="40.99" x2="38.49" y2="9.91" gradientUnits="userSpaceOnUse"><stop offset="0" stop-color="#fff" stop-opacity="0"/><stop offset="1" stop-color="#fff"/></linearGradient></defs><title>b-uk</title><g class="cls-1"><circle class="cls-2" cx="38.46" cy="38.46" r="38.46"/><circle class="cls-3" cx="38.46" cy="38.46" r="38.38"/><circle class="cls-4" cx="38.46" cy="38.46" r="38.3"/><circle class="cls-5" cx="38.46" cy="38.46" r="38.22"/><circle class="cls-6" cx="38.47" cy="38.46" r="38.13"/><circle class="cls-7" cx="38.47" cy="38.47" r="38.05"/><circle class="cls-8" cx="38.47" cy="38.47" r="37.97"/><circle class="cls-9" cx="38.47" cy="38.47" r="37.89"/><circle class="cls-10" cx="38.47" cy="38.47" r="37.8"/><circle class="cls-11" cx="38.47" cy="38.47" r="37.72"/><circle class="cls-12" cx="38.47" cy="38.47" r="37.64"/><circle class="cls-13" cx="38.47" cy="38.47" r="37.56"/><circle class="cls-14" cx="38.47" cy="38.47" r="37.47"/><circle class="cls-15" cx="38.47" cy="38.47" r="37.39"/><circle class="cls-16" cx="38.47" cy="38.47" r="37.31"/><circle class="cls-17" cx="38.47" cy="38.47" r="37.22"/><circle class="cls-18" cx="38.47" cy="38.47" r="37.14"/><circle class="cls-19" cx="38.47" cy="38.47" r="37.06"/><circle class="cls-20" cx="38.47" cy="38.47" r="36.98"/><circle class="cls-21" cx="38.47" cy="38.47" r="36.89"/><circle class="cls-22" cx="38.47" cy="38.47" r="36.81"/><circle class="cls-23" cx="38.47" cy="38.47" r="36.73"/><circle class="cls-24" cx="38.47" cy="38.47" r="36.65"/><circle class="cls-25" cx="38.47" cy="38.47" r="36.56"/><circle class="cls-26" cx="38.47" cy="38.47" r="36.48"/><circle class="cls-27" cx="38.47" cy="38.47" r="36.4"/><circle class="cls-28" cx="38.47" cy="38.47" r="36.32"/><circle class="cls-29" cx="38.47" cy="38.47" r="36.23"/><circle class="cls-30" cx="38.47" cy="38.47" r="36.15"/><circle class="cls-31" cx="38.47" cy="38.47" r="36.07"/><circle class="cls-32" cx="38.47" cy="38.47" r="35.98"/><circle cx="38.47" cy="38.47" r="35.9"/><circle class="cls-33" cx="38.47" cy="38.47" r="35.9"/></g><path class="cls-2" d="M50.17,76c2-.46,3-1,5-1.66V55.95l13.48,7.73c0.68-.81,1.16-1.64,1.76-2.5,0.62-1.06,1.09-2,1.62-3l-7.47-4h9.22a42.92,42.92,0,0,0,1.48-5H50.17V76Z" transform="translate(-1.38 -2.5)"/><path class="cls-2" d="M4.43,49.17a42.92,42.92,0,0,0,1.48,5H7.57l-1.34.61A50.45,50.45,0,0,0,9.36,61.2l12.69-7h9.66L12.32,64.89c0.54,0.6,1.27,1.12,1.85,1.69l19-10.63v20.9a16.07,16.07,0,0,0,4,.62V49.17H4.43Z" transform="translate(-1.38 -2.5)"/><path class="cls-2" d="M37.17,4.45a17.62,17.62,0,0,0-4,.55V27.62L13,16.35a36.36,36.36,0,0,0-3.42,4.39c-0.1.15-.23,0.56-0.34,0.72l15,8.71H14.58L6.88,25.6c-0.48,1-.89,2.24-1.28,3.34l2,1.23H5.23a20.4,20.4,0,0,0-1.15,5H37.17V4.45Z" transform="translate(-1.38 -2.5)"/><path class="cls-2" d="M69.61,19.33l-14.45,8.3V7.35c-2-.6-3-1.12-5-1.55V35.17H75.62a37,37,0,0,0-2.49-8.5l-6.39,3.5H57.09l13.87-8c-0.24-.39-0.29-0.92-0.55-1.3S69.95,19.79,69.61,19.33Z" transform="translate(-1.38 -2.5)"/><path class="cls-34" d="M66.75,30.17l6.39-3.82A31,31,0,0,0,71,22.28L57.09,30.17h9.66Z" transform="translate(-1.38 -2.5)"/><path class="cls-34" d="M71.94,58.29a16.93,16.93,0,0,0,1.84-4.13H64.56Z" transform="translate(-1.38 -2.5)"/><path class="cls-34" d="M24.24,30.17L9.17,21.46a33.26,33.26,0,0,0-2.3,4.26l7.7,4.45h9.66Z" transform="translate(-1.38 -2.5)"/><path class="cls-34" d="M22.05,54.17l-12.69,7c0,0.07.07,0.06,0.11,0.12a40.7,40.7,0,0,0,2.85,3.66L31.71,54.17H22.05Z" transform="translate(-1.38 -2.5)"/><path class="cls-35" d="M70,19.33c-3.77-5.29-9.81-9.41-14.81-12V27.62Z" transform="translate(-1.38 -2.5)"/><path class="cls-35" d="M33.17,5a35.2,35.2,0,0,0-20,11.35l20,11.27V5Z" transform="translate(-1.38 -2.5)"/><path class="cls-35" d="M14.33,66.51c5,5,10.84,8.8,18.84,10.34V55.95Z" transform="translate(-1.38 -2.5)"/><path class="cls-35" d="M55.17,74.31A44.51,44.51,0,0,0,69,63.68L55.17,55.95V74.31Z" transform="translate(-1.38 -2.5)"/><path class="cls-34" d="M50.17,5.8a41.54,41.54,0,0,0-10.3-1.45c-0.9,0-1.7,0-2.7.1V35.17H4.07a26.87,26.87,0,0,0-.58,6.18,35.73,35.73,0,0,0,.93,7.82H37.17v28.3c1,0.07,1.8.12,2.7,0.12A38.45,38.45,0,0,0,50.17,76V49.17h25.1a35.73,35.73,0,0,0,.93-7.82,26.87,26.87,0,0,0-.58-6.18H50.17V5.8Z" transform="translate(-1.38 -2.5)"/><ellipse class="cls-36" cx="38.47" cy="20.89" rx="29.06" ry="20.35"/></svg>