<?xml version="1.0" encoding="utf-8"?>
<!-- Generator: Adobe Illustrator 24.3.0, SVG Export Plug-In . SVG Version: 6.00 Build 0)  -->
<svg version="1.1" id="Capa_1" focusable="false" xmlns="http://www.w3.org/2000/svg" xmlns:xlink="http://www.w3.org/1999/xlink"
	 x="0px" y="0px" viewBox="0 0 448 416.9" style="enable-background:new 0 0 448 416.9;" xml:space="preserve">
<style type="text/css">
	.st0{fill:#10479E;}
</style>
<g>
	<path class="st0" d="M16,134h416c8.8,0,16-5.8,16-13.1V88.3c0-7.2-7.2-13.1-16-13.1H16c-8.8,0-16,5.8-16,13.1v32.7
		C0,128.1,7.2,134,16,134z"/>
	<path class="st0" d="M16,237.8h416c8.8,0,16-5.8,16-13.1v-32.7c0-7.2-7.2-13.1-16-13.1H16c-8.8,0-16,5.8-16,13.1v32.7
		C0,232,7.2,237.8,16,237.8z"/>
	<path class="st0" d="M16,341.7h416c8.8,0,16-5.8,16-13.1V296c0-7.2-7.2-13.1-16-13.1H16c-8.8,0-16,5.8-16,13.1v32.7
		C0,335.8,7.2,341.7,16,341.7z"/>
</g>
<g>
	<g>
		<g>
			<path class="st0" d="M-238.6,152.6c-0.9-0.6-2.1-0.9-3.2-0.9h-0.1c-1.9,0-3.2,0.9-4.3,1.7l-0.2,0.2h0.7c1.9,0,2.5,0.3,3.7,0.9
				c0.2,0.1,0.5,0.4,0.8,0.6c1.6,1.5,1.6,4.5-0.6,5.1c-0.1-1.6-2.2-3.7-4-3.7h-0.4c-0.7,0-1.1,0.2-1.5,0.4l-0.4,0.2v0.1
				c0.7,0.2,1.5,0.9,2,1.4c0.6,0.7,1.1,1.7,0.7,2.7c-1.7,0-3.6-1.5-4.3-2.5c-0.5-0.7-1.1-2-1.5-3.3c-1.8-7.1,2.9-18.6,7.8-23
				c1-0.9,2.3-1.5,2.5-1.5c0,0,0,0,0.1,0l0,0c0.4,0,0.7,0.8,2.2,0.5c0.9-0.1,2.4-1.1,2.4-2.4c0-2.9-3.9-2.8-5.9-2.4
				c-2.3,0.5-4.6,1.5-6.4,2.7c-0.9,0.6-1.8,1.2-2.6,1.9c-0.9,0.7-2.4,2-3.1,2.9c-0.4,0.6-0.9,1-1.4,1.6c-0.2,0.3-1.1,1.6-1.3,1.7
				c-0.1-1.7-2.8-11.5-5.1-11.4l0,0l0,0c-2.4-0.2-5,9.6-5.1,11.4c-0.2-0.1-1-1.4-1.3-1.7c-0.5-0.6-0.9-1.1-1.4-1.6
				c-0.7-0.9-2.2-2.2-3.1-2.9c-0.8-0.6-1.7-1.3-2.6-1.9c-1.9-1.2-4.2-2.3-6.4-2.7c-2-0.4-5.9-0.4-5.9,2.4c0,1.3,1.6,2.3,2.4,2.4
				c1.5,0.3,1.8-0.5,2.2-0.5l0,0c0,0,0,0,0.1,0c0.2,0,1.5,0.6,2.5,1.5c4.9,4.4,9.7,15.9,7.8,23c-0.3,1.3-1,2.7-1.5,3.3
				c-0.8,1-2.7,2.5-4.3,2.5c-0.4-1,0.1-2,0.7-2.7c0.4-0.5,1.3-1.3,2-1.4v-0.1l-0.4-0.2c-0.5-0.2-0.8-0.4-1.5-0.4h-0.4
				c-1.8,0-3.9,2.1-4,3.7c-2.1-0.6-2.2-3.6-0.6-5.1c0.3-0.3,0.6-0.5,0.8-0.6c1.2-0.7,1.8-0.9,3.7-0.9h0.7l-0.2-0.2
				c-1.2-0.8-2.4-1.7-4.3-1.7h-0.1c-1.1,0-2.3,0.3-3.2,0.9c-4.3,2.7-2.5,10.5,2.5,11.3c0.4,0.1,0.6,0.1,0.8,0.2c0,0,0.3,0.4,0.8,1
				c1.1,1.5,2.8,2.3,4.7,2.6c1.7,0.3,3.4,0.1,4.9-0.7c1.2-0.6,2.5-1.8,2.9-2.4c0.4-0.7,1-1.4,1.3-2.3c1-3,1.6-6.6,2-9.9
				c0.2-1.6,0.6-5.3,0.6-6.8c0.3,0.5,1.7,3.9,1.7,4.1c0,0.1-1.8,5.6-2.7,8.9c-1,4.1-1.2,9.5-0.3,13.7c0.4,1.9,1.9,6.5,4.3,6.4h0.1
				l0,0l0,0h0.1c2.5,0.1,3.9-4.5,4.3-6.4c0.8-4.2,0.7-9.6-0.3-13.7c-1.1-3.2-2.9-8.7-2.9-8.8c0-0.2,1.4-3.6,1.7-4.1
				c0,1.4,0.4,5.2,0.6,6.8c0.4,3.3,0.9,7,2,9.9c0.3,0.9,0.8,1.6,1.3,2.3c0.4,0.7,1.7,1.8,2.9,2.4c1.5,0.7,3.2,0.9,4.9,0.7
				c1.8-0.3,3.6-1.2,4.7-2.6c0.5-0.6,0.8-1,0.8-1c0.2-0.1,0.4-0.1,0.8-0.2C-236.1,163.1-234.3,155.4-238.6,152.6z M-268.2,147.2
				c-0.2,4.4-0.6,10.9-2.4,14c-0.5,0.8-1.1,1.7-1.8,2.3c-0.9,0.8-2.2,1.5-4.3,0.4c1.1-0.4,2.1-0.7,3.1-1.4c2.1-1.4,3.1-3,3.8-5.5
				c1-4.1,0.9-8.4-0.2-12.4c-0.3-1.1-0.6-2.1-0.9-3c-0.6-1.7-4.3-7.9-5.2-8.8c3.7,1.9,6,5.5,8.2,8.8
				C-268.1,143.5-268.2,145.3-268.2,147.2z M-260.1,161.7c0.4,3.3,0.8,10.2-2,12.1l0,0l0,0c-2.8-1.9-2.4-8.8-2-12.1
				c0.4-2.7,0.9-4.4,2-7.9l0,0l0,0C-261,157.3-260.5,159.1-260.1,161.7z M-262.1,145.8L-262.1,145.8L-262.1,145.8l-2.4-4.7
				c0-1.4,1.7-8.2,2.4-8.9l0,0l0,0c0.7,0.6,2.4,7.4,2.4,8.9L-262.1,145.8z M-251.8,163.5c-0.8-0.6-1.3-1.5-1.8-2.3
				c-1.8-3.1-2.2-9.6-2.4-14c-0.1-1.8-0.1-3.7-0.2-5.5c2.2-3.3,4.5-6.9,8.2-8.8c-0.9,0.9-4.6,7.1-5.2,8.8c-0.3,0.9-0.7,1.9-0.9,3
				c-1.1,4-1.2,8.4-0.2,12.4c0.6,2.5,1.7,4.1,3.8,5.5c1,0.7,2,1,3.1,1.4C-249.6,165-250.8,164.3-251.8,163.5z"/>
		</g>
		<path class="st0" d="M-262.8,121.9h-1.4l1.1,1l-0.3,1.4c0.3-0.1,1.1-0.7,1.2-0.7c0.2,0,0.9,0.6,1.3,0.7l-0.3-1.4l1-0.9v-0.1h-1.4
			l-0.6-1.4L-262.8,121.9L-262.8,121.9z"/>
		<path class="st0" d="M-276.6,118.8l-1.4,0.1l1.1,1l-0.3,1.4c0.3-0.1,1.1-0.7,1.2-0.7c0.2,0,0.9,0.6,1.3,0.7l-0.3-1.4l1-0.9v-0.1
			h-1.3l-0.6-1.4L-276.6,118.8L-276.6,118.8z"/>
		<path class="st0" d="M-269.2,120.8l-1.4,0.1l1.1,1l-0.3,1.4c0.3-0.1,1.1-0.7,1.2-0.7c0.2,0,0.9,0.6,1.3,0.7l-0.3-1.4l1-0.9v-0.1
			h-1.3l-0.6-1.4L-269.2,120.8L-269.2,120.8z"/>
		<path class="st0" d="M-282.5,115.7l-1.4,0.1l1.1,1l-0.3,1.4c0.3-0.1,1.1-0.7,1.2-0.7c0.2,0,0.9,0.6,1.3,0.7l-0.3-1.4l1-0.9v-0.1
			h-1.3l-0.6-1.4L-282.5,115.7L-282.5,115.7z"/>
		<path class="st0" d="M-275.8,112.4l-1.4,0.1l1.1,1l-0.3,1.4c0.3-0.1,1.1-0.7,1.2-0.7c0.2,0,0.9,0.6,1.3,0.7l-0.3-1.4l1-0.9v-0.1
			h-1.3l-0.6-1.4L-275.8,112.4L-275.8,112.4z"/>
		<path class="st0" d="M-268.8,111.1l-1.4,0.1l1.1,1l-0.3,1.4c0.3-0.1,1.1-0.7,1.2-0.7c0.2,0,0.9,0.6,1.3,0.7l-0.3-1.4l1-0.9v-0.1
			h-1.3l-0.6-1.4L-268.8,111.1L-268.8,111.1z"/>
		<path class="st0" d="M-262,110.3l-1.4,0.1l1.1,1l-0.3,1.4c0.3-0.1,1.1-0.7,1.2-0.7c0.2,0,0.9,0.6,1.3,0.7l-0.5-1.5l1-0.9v-0.1
			h-1.3l-0.6-1.4L-262,110.3L-262,110.3z"/>
		<path class="st0" d="M-254.4,111.2l-1.4,0.1l1.1,1l-0.3,1.4c0.2-0.2,1-0.8,1.1-0.8c0.2,0,0.9,0.6,1.3,0.7l-0.3-1.4l1-0.9v-0.1
			h-1.3l-0.6-1.4L-254.4,111.2L-254.4,111.2z"/>
		<path class="st0" d="M-248.2,112.6l-1.4,0.1l1.1,1l-0.3,1.4c0.3-0.1,1.1-0.7,1.2-0.7c0.2,0,0.9,0.6,1.3,0.7l-0.3-1.4l1-0.9v-0.1
			h-1.3l-0.6-1.4L-248.2,112.6L-248.2,112.6z"/>
		<path class="st0" d="M-254.8,121.6l-1.4,0.1l1.1,1l-0.3,1.4c0.3-0.1,1.1-0.7,1.2-0.7c0.2,0,0.9,0.6,1.3,0.7l-0.3-1.4l1-0.9v-0.1
			h-1.3l-0.6-1.4L-254.8,121.6L-254.8,121.6z"/>
		<path class="st0" d="M-248,121l-1.4,0.1l1.1,1l-0.3,1.2c0.3-0.1,1.1-0.7,1.2-0.7c0.2,0,0.9,0.6,1.3,0.7l-0.4-1.4l1-0.9v-0.1h-1.3
			l-0.6-1.4L-248,121L-248,121z"/>
		<path class="st0" d="M-242.8,116.7l-1.4,0.1l1.1,1l-0.3,1.4c0.3-0.1,1.1-0.7,1.2-0.7c0.2,0,0.9,0.6,1.3,0.7l-0.3-1.4l1-0.9v-0.1
			h-1.3l-0.6-1.4L-242.8,116.7L-242.8,116.7z"/>
	</g>
</g>
</svg>
