<svg id="Capa_1" data-name="Capa 1" xmlns="http://www.w3.org/2000/svg" xmlns:xlink="http://www.w3.org/1999/xlink" viewBox="0 0 250 250"><defs><style>.cls-1{fill:none;}.cls-2{fill:#fff;}.cls-3{clip-path:url(#clip-path);}.cls-4{fill:#10479e;}</style><clipPath id="clip-path"><rect class="cls-1" x="5.15" y="4.67" width="239.71" height="240.67"/></clipPath></defs><rect class="cls-2" x="52.3" y="48.55" width="145.4" height="154.67"/><g class="cls-3"><path class="cls-4" d="M125.11,4.43a120,120,0,1,0,120,120,120,120,0,0,0-120-120ZM173.87,178.1v8.3a8.3,8.3,0,0,1-8.3,8.29h-83A16.59,16.59,0,0,1,66,178.1V73.69a16.6,16.6,0,0,1,16.59-16.6h83a8.31,8.31,0,0,1,8.3,8.3ZM190.46,73.69V186.4a8.29,8.29,0,0,1-8.29,8.29h-2.25a16.44,16.44,0,0,0,2.25-8.29v-121a16.44,16.44,0,0,0-2.25-8.29h2.25a8.29,8.29,0,0,1,8.29,8.29Zm0,0"/></g><path class="cls-4" d="M145.59,136.82s-3.13-3.76-6.59-1.17c-2.58,1.93-7.22,6.22-8.33,7.26a93,93,0,0,1-12.34-7.9,64.75,64.75,0,0,1-13.71-16.41l-1.78-3.35c.62-.67,5.36-5.75,7.42-8.51,2.58-3.46-1.16-6.59-1.16-6.59S98.55,89.61,96.15,87.51A5.19,5.19,0,0,0,91,86.58c-5,3.27-10.28,6.1-10.59,19.75,0,12.77,9.68,25.94,20.17,36.14,10.5,11.52,24.92,23.06,38.86,23.05,13.64-.31,16.47-5.54,19.74-10.59a5.19,5.19,0,0,0-.93-5.17c-2.1-2.41-12.64-12.94-12.64-12.94Zm0,0"/></svg>