<svg id="Capa_1" data-name="Capa 1" xmlns="http://www.w3.org/2000/svg" viewBox="0 0 250 250"><defs><style>.cls-1{fill:#10479e;}.cls-2{fill:#edf7f9;fill-rule:evenodd;}</style></defs><circle class="cls-1" cx="125" cy="125" r="122.73"/><path class="cls-2" d="M175.1,180.26l5.11,5.12a8.35,8.35,0,0,1,0,11.79h0a8.35,8.35,0,0,1-11.79,0l-6.59-6.58a73.17,73.17,0,0,1-75.73,0l-6.58,6.58a8.36,8.36,0,0,1-11.8,0h0a8.37,8.37,0,0,1,0-11.79l5.11-5.12a73,73,0,1,1,102.27,0Zm-48.16-56.64-2-42.29h-1.84l-2,42.29a5.38,5.38,0,1,0,8.27,5.44h42.82v-1.91H129.27a5.4,5.4,0,0,0-2.33-3.53ZM126,68.53V79.3H121.9V68.53a59.25,59.25,0,0,0-27.13,7.59l3.1,5.37-1.23.7-3.09-5.36A59.92,59.92,0,0,0,72.69,97.68l5.37,3.1L77.35,102,72,98.9A59.38,59.38,0,0,0,64.39,126H75.58v4.11H64.39A59.25,59.25,0,0,0,72,157.29l5.38-3.1.71,1.22-5.38,3.11a60,60,0,0,0,20.86,20.86l3.1-5.38,1.23.7-3.11,5.39a59.39,59.39,0,0,0,27.14,7.6v-10.8H126v10.8a59.31,59.31,0,0,0,27.15-7.6l-3.11-5.39,1.22-.7,3.11,5.38a59.78,59.78,0,0,0,20.86-20.86l-5.39-3.11.71-1.22L176,157.3a59.42,59.42,0,0,0,7.59-27.15H173.17V126h10.38A59.39,59.39,0,0,0,176,98.9l-5.38,3.1-.71-1.22,5.38-3.11a60,60,0,0,0-20.86-20.85l-3.1,5.37-1.22-.7,3.1-5.37A59.26,59.26,0,0,0,126,68.53Zm-2-26.87A38,38,0,0,0,94,56.27a78.12,78.12,0,0,1,60,0,38,38,0,0,0-30-14.61Zm0-7.21A11.39,11.39,0,0,1,133.11,39a41.86,41.86,0,0,0-18.28,0A11.38,11.38,0,0,1,124,34.45Z"/></svg>