<svg id="Capa_1" data-name="Capa 1" xmlns="http://www.w3.org/2000/svg" xmlns:xlink="http://www.w3.org/1999/xlink" viewBox="0 0 250 250"><defs><style>.cls-1{fill:none;}.cls-2{fill:#fff;}.cls-3{fill:#10479e;}.cls-4{clip-path:url(#clip-path);}</style><clipPath id="clip-path"><rect class="cls-1" x="7.54" y="7.07" width="234.92" height="235.86"/></clipPath></defs><rect class="cls-2" x="56.19" y="49.22" width="145.4" height="154.67"/><path class="cls-3" d="M120,127.56c15,0,18.59-12.24,18.59-22.51a18.59,18.59,0,1,0-37.18,0c0,10.27,4.93,22.51,18.59,22.51Zm0,0"/><g class="cls-4"><path class="cls-3" d="M122.62,130.14h-5.18C107.25,130.14,92,139.47,92,151s-3.46,20.86,6.73,20.86h42.67c10.18,0,6.73-9.34,6.73-20.86s-15.29-20.86-25.48-20.86Zm0,0"/><path class="cls-3" d="M125.11,6.84A117.58,117.58,0,1,0,242.69,124.41,117.57,117.57,0,0,0,125.11,6.84ZM172.89,177v8.13a8.13,8.13,0,0,1-8.13,8.13H83.44A16.27,16.27,0,0,1,67.17,177V74.71A16.27,16.27,0,0,1,83.44,58.45h81.32a8.13,8.13,0,0,1,8.13,8.13ZM189.15,74.71V185.17A8.12,8.12,0,0,1,181,193.3h-2.21a16.17,16.17,0,0,0,2.21-8.13V66.58a16.12,16.12,0,0,0-2.21-8.13H181a8.12,8.12,0,0,1,8.12,8.13Zm0,0"/></g></svg>