<svg id="Capa_1" data-name="Capa 1" xmlns="http://www.w3.org/2000/svg" viewBox="0 0 295 281"><defs><style>.cls-1{fill:#fff;}</style></defs><path class="cls-1" d="M286,65.3V275.76c-1.23,2.23-3.16,2.83-5.64,2.83q-132.86-.07-265.72,0c-2.48,0-4.41-.6-5.64-2.83V65.3c2.5-9.89,9.62-14.51,20.57-14.22,15.2.41,30.42.1,45.64.1H78.3c0-4.83-.07-9.32,0-13.8,0-2.57.27-5-2.85-6.15C74.73,31,74.17,30,73.64,29.3c-3.2-4.3-3.36-18.76.08-22.78,1.61-1.89,4.07-3,6.15-4.52h24.89c1.63,1.5,3.09,3.13,2.1,5.55s-3.16,2.6-5.43,2.58c-5.86,0-11.71,0-17.57,0-3.49,0-4.23.77-4.28,4.33,0,2.07,0,4.14,0,6.21,0,4.52.6,5.09,5.19,5.09q62.71,0,125.44,0c.45,0,.9,0,1.35,0,2.91-.09,3.81-1,3.89-3.95.06-2.07,0-4.15,0-6.22,0-5-.49-5.46-5.34-5.46q-44.61,0-89.21,0c-2.32,0-4.44-.34-5.25-2.84s.59-4.1,2.63-5.29h96.84c4.75,2.05,8.2,5.15,8.36,10.74q.15,5.13,0,10.26c-.1,3.19-1.07,6.43-3.83,8-3.17,1.75-3,4.17-3,7,.07,4.37,0,8.74,0,13.27h3.35c15.94,0,31.88-.1,47.81.09A24.74,24.74,0,0,1,277,53.22C282.13,55.43,284.53,60.11,286,65.3ZM160.48,243.4h3.45q23.65,0,47.33,0a14.36,14.36,0,0,1,3.21.28,3.94,3.94,0,0,1-.44,7.73,26.91,26.91,0,0,1-3.24.09H17.27v18.72H277.73V251.52H232a14.68,14.68,0,0,1-3-.15,3.62,3.62,0,0,1-3.11-3.56,3.53,3.53,0,0,1,2.55-4,11.76,11.76,0,0,1,3.46-.41q21.36,0,42.73,0h3.14V170.59h-3.3c-48.41,0-96.83-.05-145.24.1a113.73,113.73,0,0,0-17.42,1.81c-6.25,1-6.22,1.23-6.22,7.65,0,1.18,0,2.35,0,3.52-.15,5.94.32,12-.58,17.81-2.43,15.7-15.69,26.92-31.63,27.24-8.47.18-17,0-25.43.11-.88,0-2.39.56-2.54,1.14-1.13,4.29-2,8.64-3,13.2h73.72V240c0-11.53-.05-23.07,0-34.61,0-9.3,6.36-15.57,15.65-15.69,4.06-.05,8.12,0,12.17,0,10.35,0,16.51,6.16,16.52,16.46,0,11.36,0,22.72,0,34.08Zm47.91-80.93V34.05H86.55V173.82a10.56,10.56,0,0,0,1.39-.55c14-8.11,29.07-11,45.09-10.86,24,.25,47.95.06,71.93.06ZM34.66,243.28c.1-.85.2-1.38.23-1.9A50.54,50.54,0,0,1,49.38,208.2c8.73-9,17.77-17.66,26.76-26.37A6.1,6.1,0,0,0,78.35,177q-.1-57.18,0-114.37V59.3H27.42c-7.17,0-10.3,3.18-10.3,10.43q0,85.3,0,170.62v2.93Zm243.22-81v-2.83q0-45,0-90c0-6.87-3.23-10.12-10.06-10.13h-51v103h12.87c0-6.75,0-13.31,0-19.87,0-6.34,3.54-9.86,9.9-9.92,5-.06,9.91,0,14.87,0,7,0,10.43,3.5,10.44,10.51,0,6.38,0,12.77,0,19.31Zm-125.53,81c0-13.2.06-26.08,0-39,0-3.68-3.14-6.42-7-6.49-4.32-.08-8.65,0-13,0-5.38,0-8.09,2.76-8.1,8.17q0,17.44,0,34.88c0,.79.09,1.57.15,2.43Zm-55-65.38c-8.56,2.39-44.34,35-47,42.76,7.07,0,14.1-.15,21.12,0,14.28.37,25.59-10.53,25.84-23.91C97.43,190.52,97.34,184.24,97.34,177.9Zm159.44-15.56c0-6.8,0-13.28,0-19.75,0-1.58-.7-2-2.13-2-4.86,0-9.72.06-14.58,0-1.77,0-2.37.6-2.33,2.36.1,4.41,0,8.83,0,13.24v6.18Z"/><path class="cls-1" d="M9,275.76c1.23,2.23,3.16,2.83,5.64,2.83q132.86-.07,265.72,0c2.48,0,4.41-.6,5.64-2.83V279H9Z"/><path class="cls-1" d="M191.33,189.7c2.7,0,5.4-.07,8.1,0a11.9,11.9,0,0,1,11.85,11.65c.18,5.49.17,11,0,16.48a11.87,11.87,0,0,1-11.73,11.79c-5.49.23-11,.23-16.48,0a11.91,11.91,0,0,1-11.74-12.07c-.12-5.22-.11-10.45,0-15.67a12,12,0,0,1,12.16-12.2c2.61-.06,5.22,0,7.84,0Zm0,8.11c-2.52,0-5-.06-7.55,0-2.83.09-4.32,1.54-4.36,4.39q-.12,7.42,0,14.84c.05,2.86,1.49,4.44,4.29,4.51,5,.12,10.07.11,15.11,0,2.82-.06,4.31-1.61,4.36-4.44q.12-7.56,0-15.11c-.06-2.68-1.58-4.1-4.28-4.19C196.4,197.74,193.88,197.81,191.36,197.81Z"/><path class="cls-1" d="M244.49,189.71c2.71,0,5.41-.08,8.11,0a11.85,11.85,0,0,1,11.68,11.52c.21,5.58.2,11.17,0,16.75a11.88,11.88,0,0,1-11.86,11.66c-5.4.19-10.81.2-16.21,0-6.92-.26-11.74-5.3-11.87-12.22-.1-5.23-.12-10.45,0-15.68a12,12,0,0,1,12-12c2.7-.08,5.4,0,8.1,0Zm11.75,20c0-2.42.05-4.85,0-7.28-.08-3-1.49-4.52-4.47-4.57q-7.41-.09-14.84,0c-2.88,0-4.4,1.47-4.45,4.29q-.14,7.56,0,15.11c.05,2.7,1.51,4.27,4.18,4.33q7.68.18,15.38,0c2.67-.06,4.09-1.63,4.19-4.32C256.31,214.71,256.24,212.19,256.24,209.67Z"/><path class="cls-1" d="M99.77,69.09c0-4.32-.06-8.65,0-13,.1-5.7,3.65-9.18,9.39-9.24,5.49-.05,11-.06,16.48,0s9.22,3.64,9.3,9.12q.16,13,0,26c-.06,5.59-3.82,9.21-9.45,9.27s-11,.08-16.49,0-9.12-3.65-9.23-9.16C99.71,77.74,99.78,73.41,99.77,69.09Zm8.12-.14c0,4,.06,7.91,0,11.87,0,1.75.55,2.37,2.33,2.34,4.76-.1,9.53-.09,14.3,0,1.7,0,2.43-.47,2.42-2.28-.07-7.92-.06-15.84,0-23.75,0-1.67-.63-2.18-2.23-2.16-4.86.07-9.72.1-14.57,0-1.88-.05-2.28.73-2.24,2.39C107.94,61.21,107.89,65.08,107.89,69Z"/><path class="cls-1" d="M195.23,69.2c0,4.23.06,8.47,0,12.7-.1,5.68-3.66,9.25-9.34,9.32-5.5.07-11,.08-16.49,0s-9.29-3.75-9.35-9.38q-.14-12.84,0-25.68c.07-5.64,3.77-9.22,9.42-9.28q8.24-.09,16.48,0c5.68.07,9.19,3.61,9.28,9.35C195.28,60.55,195.23,64.88,195.23,69.2Zm-8.12.16c0-4,0-8.1,0-12.14,0-1.53-.34-2.3-2.09-2.27-5,.1-9.9.09-14.84,0-1.75,0-2.12.76-2.11,2.29q.08,11.74,0,23.48c0,1.67.41,2.47,2.26,2.44,4.86-.1,9.72-.09,14.58,0,1.64,0,2.23-.56,2.2-2.18C187.06,77.1,187.11,73.23,187.11,69.36Z"/><path class="cls-1" d="M99.78,126.34c0-4.32-.07-8.65,0-13,.11-5.55,3.66-9.07,9.21-9.14s11.17-.07,16.76,0c5.35.06,9.1,3.6,9.18,8.93q.21,13.24,0,26.49a8.77,8.77,0,0,1-9,8.89q-8.64.18-17.29,0c-5.2-.11-8.74-3.74-8.86-9C99.7,135.18,99.78,130.76,99.78,126.34Zm27.1,0c0-4,0-7.92,0-11.87,0-1.62-.52-2.24-2.18-2.22q-7.43.12-14.84,0c-1.56,0-2,.58-2,2.06q.06,12,0,24c0,1.44.41,2.13,2,2.11q7.41-.1,14.84,0c1.66,0,2.22-.63,2.19-2.23C126.83,134.31,126.88,130.35,126.88,126.39Z"/><path class="cls-1" d="M195.22,126.43c0,4.33.07,8.65,0,13-.11,5.5-3.7,9.08-9.23,9.16s-11.17.09-16.75,0c-5.33-.09-9.1-3.69-9.18-9q-.2-13.24,0-26.49a8.71,8.71,0,0,1,9-8.84c5.68-.09,11.36-.08,17,0,5.4.07,9,3.58,9.11,9C195.3,117.6,195.22,122,195.22,126.43Zm-8.11,0c0-3.87-.06-7.74,0-11.6,0-1.79-.41-2.58-2.39-2.53-4.76.13-9.54.1-14.3,0-1.74,0-2.38.53-2.37,2.31.07,7.83.06,15.65,0,23.48,0,1.68.45,2.45,2.28,2.41,4.86-.09,9.72-.08,14.58,0,1.66,0,2.2-.6,2.18-2.2C187.07,134.34,187.11,130.38,187.11,126.42Z"/><path class="cls-1" d="M65.31,95.33c0,4.32,0,8.65,0,13-.09,5.31-3.38,8.93-8.67,9.11q-8.91.32-17.83,0c-5.23-.19-8.63-3.88-8.68-9.13q-.11-13,0-25.94c.05-5.14,3.32-8.85,8.44-9.07,6.1-.27,12.24-.27,18.35,0,5.16.23,8.26,3.87,8.4,9.09v.54C65.32,87,65.31,91.19,65.31,95.33ZM57.2,81.46h-19c0,8.94,0,17.65.1,26.36,0,.53,1.39,1.48,2.15,1.5,4.85.14,9.71,0,14.57.09,1.61,0,2.23-.55,2.19-2.2-.1-3.69,0-7.38,0-11.07Z"/><path class="cls-1" d="M65.31,154.94c0,4.23,0,8.47,0,12.7-.09,5.53-3.61,9.1-9.16,9.19s-11.35.1-17,0a8.73,8.73,0,0,1-9-9.1q-.14-13,0-25.94c0-5.33,3.56-9.06,8.92-9.24q8.64-.28,17.29,0c5.5.17,8.91,3.88,9,9.44C65.35,146.29,65.31,150.61,65.31,154.94Zm-8.11-.1c0-4-.06-7.92,0-11.87,0-1.71-.45-2.44-2.28-2.41-4.85.09-9.72.07-14.57,0-1.64,0-2.2.6-2.19,2.23q.09,11.88,0,23.75c0,1.64.5,2.24,2.15,2.21,4.95-.07,9.9-.06,14.85,0,1.51,0,2.06-.51,2-2C57.15,162.76,57.2,158.8,57.2,154.84Z"/><path class="cls-1" d="M229.69,95.12c0-4.23-.05-8.47,0-12.7.08-5.34,3.28-9,8.6-9.18,6-.25,12.07-.25,18.09,0,5.13.22,8.43,3.89,8.48,9q.11,13,0,25.93c0,5.4-3.47,9-8.89,9.21-5.84.19-11.71.19-17.55,0-5.3-.18-8.59-3.78-8.74-9.06V95.12Zm8.12-13.87c0,9.16,0,17.87.07,26.58a2.27,2.27,0,0,0,1.63,1.48q7.81.16,15.64,0a2.25,2.25,0,0,0,1.56-1.56q.15-12.42,0-24.83a2.22,2.22,0,0,0-1.51-1.59C249.54,81.2,243.89,81.25,237.81,81.25Z"/></svg>