<svg id="Capa_1" data-name="Capa 1" xmlns="http://www.w3.org/2000/svg" viewBox="0 0 295 281"><defs><style>.cls-1{fill:#fff;}</style></defs><path class="cls-1" d="M142.14,36c0,2.32-.09,4.63,0,6.94.16,3.35,2.32,5.49,5.34,5.48s5.24-2.14,5.33-5.49c.12-4.53.11-9.07,0-13.61a5.41,5.41,0,0,0-5.33-5.56c-2.9,0-5.18,2.31-5.34,5.57C142.06,31.54,142.14,33.77,142.14,36Zm21.77-7.11c1.27,1.55,2.2,3.3,3.65,4.32,2,1.37,4.18.79,5.9-.81,2.67-2.49,5.26-5.07,7.8-7.7s2.66-5.62.55-7.85-5.32-2.31-8.07.28c-2.53,2.39-5,4.83-7.35,7.4C165.43,25.58,164.93,27.05,163.91,28.88Zm-33.38.23c-.46-1.42-.49-2.39-1-2.91a135.61,135.61,0,0,0-10.27-10.08c-1.82-1.52-4.3-.76-6.07,1s-2.2,4.51-.58,6.33A81.49,81.49,0,0,0,122.32,33c1.08.88,3.74.71,5.15,0S129.67,30.27,130.53,29.11ZM248.6,24.55h-.06c0-.54,0-1.07,0-1.6-.2-3.19-2.21-5.35-5.09-5.48A5.28,5.28,0,0,0,238,22.52a18,18,0,0,0,.26,5.28,5,5,0,0,0,5.32,3.9,5.21,5.21,0,0,0,4.89-4.49C248.56,26.33,248.54,25.44,248.6,24.55Zm0,26c0-5-2.61-7.77-6.45-6.94-2.82.61-4.26,2.9-4.29,6.79,0,4.22,1.25,6.42,4.15,7.11C246,58.46,248.56,55.75,248.56,50.54ZM38.41,43c5,0,7.76-2.48,7.06-6.39-.55-3.06-3-4.41-7.79-4.33-3.65.06-5.82,1.64-6.24,4.53C30.87,40.65,33.47,43,38.41,43Zm26.11,0v-.08c.63,0,1.26,0,1.87,0a5.32,5.32,0,0,0,0-10.63,19.6,19.6,0,0,0-4.53.13,5.26,5.26,0,0,0-4.47,5.21,5.36,5.36,0,0,0,4.52,5.18A23.45,23.45,0,0,0,64.52,43Zm165.64,0c4.68,0,7.11-1.8,7.13-5.32s-2.36-5.38-6.77-5.4q-7.36,0-7.4,5.31C223.09,41.08,225.53,43,230.16,43Zm26.19.06v-.08c.54,0,1.07,0,1.6,0,3.25-.25,5.54-2.52,5.47-5.43A5.43,5.43,0,0,0,258,32.28a20.07,20.07,0,0,0-4.52.15,5.28,5.28,0,0,0-4.42,5.26,5.34,5.34,0,0,0,4.34,5.07A23.47,23.47,0,0,0,256.35,43ZM56.87,24.66h-.11c0-.72.06-1.43,0-2.14a5.29,5.29,0,0,0-5-5,5,5,0,0,0-5.46,4.41A18.9,18.9,0,0,0,46.51,28a4.93,4.93,0,0,0,5.16,3.76,5.23,5.23,0,0,0,4.94-4.14A23.31,23.31,0,0,0,56.87,24.66Zm-.06,25.26a13,13,0,0,0-.17-2.14,5.25,5.25,0,0,0-6.14-4.21c-3.13.59-4.53,3-4.43,7.73.08,3.75,1.72,5.94,4.77,6.34C54.51,58.13,56.8,55.46,56.81,49.92ZM147.59,3.35a5.51,5.51,0,0,0-5.41,5.22,5.32,5.32,0,0,0,10.64.19A5.52,5.52,0,0,0,147.59,3.35Z"/><path class="cls-1" d="M10.06,210.67c1-3.48,1.76-7.1,3.18-10.43,4.89-11.56,13.77-18.6,25.83-21.73,5.19-1.34,10.41-2.55,15.64-3.72,1.45-.33,1.95-.91,2.06-2.48a8,8,0,0,0-3.54-7.81c-7.58-5.78-12.18-13.77-12.74-23.26-.57-9.77-.87-19.71.32-29.39C42.51,97.91,51,88.38,64.28,83.91s25.38-1.47,35.78,8A15.9,15.9,0,0,1,101.71,94c9.48-23.74,26.2-36.33,51.68-33.66,19.92,2.1,32.71,14.27,39.64,33.21l1.9-1.7C206.16,81.81,219,79,233,84.78s21.18,16.79,21.87,31.84c.32,6.95.2,13.93,0,20.89-.27,11.8-5.18,21.31-14.71,28.38-1.52,1.13-2.74,6.46-1.68,8a3.25,3.25,0,0,0,1.84.87c5,1.24,10.09,2.35,15.1,3.66,16.22,4.22,26,14.55,29.1,31a8.07,8.07,0,0,0,.44,1.25v41.8c-1.67,3-4.25,3.83-7.58,3.8-12.59-.13-25.18,0-37.77,0h-3c0,5-.08,9.59,0,14.21.08,3.37-1,5.91-4.27,7.22H168.44c-3.39-2.47-4.3-4.36-3.39-7s2.88-3.7,7-3.7h24.33v-2.88c0-6.43,0-12.86,0-19.28,0-4.17,2-6.68,5.28-6.74s5.44,2.53,5.45,6.85c0,4.64,0,9.28,0,13.93v7.88h18.66c0-8.85.29-17.49-.08-26.1-.49-11.49-5.56-21-14.49-28.14a34.87,34.87,0,0,0-11.37-6.34c-10-3-20.17-5.21-30.34-7.75-.57,1.21-1,2.08-1.39,3q-7.59,17.26-15.18,34.52c-1,2.37-2.49,4.2-5.29,4.25s-4.45-1.76-5.54-4.25q-7.23-16.54-14.54-33c-.64-1.45-1.3-2.88-2-4.41-9,2.16-17.77,4.16-26.49,6.39C81,209.4,69.22,224.47,69.12,243.09c0,7.15,0,14.29,0,21.43,0,.77.09,1.53.15,2.29H87.91v-3c0-6.6,0-13.21,0-19.82,0-3.52,2.22-5.88,5.25-6s5.39,2.37,5.44,6c.07,4.55,0,9.1,0,13.65v9.22h3.22c6.71,0,13.42-.07,20.13,0,4.39.06,7.18,3.72,5.44,7.31-.66,1.38-2.34,2.27-3.56,3.38H62.14c-3-1.66-4-4.23-3.82-7.58.19-4.52,0-9.05,0-13.85H55.24c-12.53,0-25-.08-37.58,0-3.33,0-5.93-.81-7.6-3.8Zm101.41-88.4c0,6.19-.56,12,.1,17.57,2.11,17.83,17.63,31.19,35.79,31.3s33.63-12.93,36.07-30.65c.81-5.88.37-11.93.62-17.9a3.6,3.6,0,0,0-2.11-3.8c-5.77-3.22-11.48-6.54-17.09-10-1.89-1.18-3-.93-4.57.5a49.26,49.26,0,0,1-32.35,13C122.41,122.41,116.89,122.27,111.47,122.27Zm72.61-14.64c-.39-13.77-5.88-24.19-17-31.37A36.39,36.39,0,0,0,111.4,111.6c5,0,10.13.07,15.21,0a39.83,39.83,0,0,0,29.46-13.12c3.57-3.81,5.35-4.06,9.81-1.46l9.24,5.41Zm68.65,137.74c0-7.63,0-15.1,0-22.57,0-4,2-6.33,5.33-6.35s5.36,2.32,5.39,6.29c0,6.69,0,13.38,0,20.08,0,.85.08,1.71.12,2.55H274a4.18,4.18,0,0,0,.2-.85c0-10.09.18-20.17-.06-30.25a25.36,25.36,0,0,0-10.65-20.65c-7.93-5.89-17.75-5.87-26.73-8.78-3.52,8.37-6.83,16.44-10.31,24.45-.75,1.73-.27,2.83.57,4.35,2.57,4.66,5.47,9.28,7.05,14.3,1.76,5.52,2.2,11.45,3.25,17.43ZM58.26,184.91c-5.87,1.42-11.55,2.6-17.11,4.18-13.08,3.71-20.31,13.42-20.35,27,0,8.92,0,17.84,0,26.76v2.47H31.53c0-7.62,0-15.09,0-22.57,0-4,2-6.32,5.34-6.33s5.36,2.32,5.38,6.3c0,6.69,0,13.38,0,20.07,0,.85.07,1.71.11,2.55H58.14a4.22,4.22,0,0,0,.21-.86,50.74,50.74,0,0,1,10.18-32,2.88,2.88,0,0,0,.2-2.39C65.34,201.79,61.84,193.5,58.26,184.91ZM195.17,122c0,6.64-.51,12.84.1,18.92,1.64,16.06,20.57,25.89,34.91,18.49,11.36-5.86,15.33-16.51,13.61-29.63C227.17,130.32,210.57,130.08,195.17,122ZM51,129.75c-.38,7.39-.4,14.24,3.58,20.36,5.37,8.26,13.06,12.43,22.89,11.6,10.38-.87,17.6-6.48,21.24-16.28,2.77-7.49,1.12-15.32,1.64-23.68C84.53,130.05,67.94,130.34,51,129.75Zm193-10.78c1.21-12.11-8-23.84-20.21-25.84-12.6-2.07-25.07,5.7-27.66,17.23C207.05,117.55,224.89,120.77,243.94,119ZM99,110.33C95.76,98,82,90.17,69.61,93.42c-13.2,3.45-20.06,16.4-18.33,25.56C67.84,119.72,84.24,119.53,99,110.33Zm48.44,111c.7-1.43,1.15-2.27,1.53-3.14,3.52-8,6.87-16.06,10.6-23.95,2.2-4.65,1-9.31,1.34-14.32a48.75,48.75,0,0,1-26.54.12c0,4-1.06,8.24.19,11.57C138.26,201.51,142.89,211.07,147.42,221.33Zm-24.1-38.23a41,41,0,0,1,0-4.89c.29-2.25-.78-3.42-2.47-4.78a97.93,97.93,0,0,1-10-9.24c-2.12-2.26-3.68-5.06-5.2-7.19-3.5,3.23-6.91,6.32-10.26,9.49a3.34,3.34,0,0,0-1,1.95c-.15,1.86,0,3.73,0,5.67C104,177.07,114.12,177.81,123.32,183.1Zm48.33.08c9.17-5.44,19.43-6,29-9.1,0-1.7.09-3.22,0-4.73a4.39,4.39,0,0,0-.79-2.61c-3.43-3.32-7-6.5-10.61-9.81a48.92,48.92,0,0,1-16.7,17.84,2.14,2.14,0,0,0-.82,1.51C171.59,178.4,171.65,180.52,171.65,183.18Zm-96.4,14.5.83,0c2.2-8.62,8.93-15.89,7.44-25.39H67.58c0,2.3-.64,4.91.12,7C69.92,185.53,72.69,191.56,75.25,197.68Zm136.19-25.41c-.13,3.62-.29,7.34,1.56,11,1.74,3.39,3,7,4.48,10.54.56,1.33,1.16,2.64,1.74,4l.72-.06c2.25-8.62,8.95-15.93,7.51-25.4Zm-29.15,17.46,0,.6,24.87,6.49c-1.67-4-3.31-7.87-5-11.93Zm-89.45-4.86c-1.72,4.13-3.35,8-5,11.89l24.88-6.5,0-.49Z"/><path class="cls-1" d="M145.89,277.65c-1.22-1.33-2.88-2.48-3.55-4-1.05-2.46.61-5.25,3.16-6.23a5.23,5.23,0,0,1,6.45,2.34,5.16,5.16,0,0,1-1.55,6.85c-.58.41-1.22.73-1.83,1.08Z"/><path class="cls-1" d="M142.14,36c0-2.22-.08-4.45,0-6.67.16-3.26,2.44-5.57,5.34-5.57a5.41,5.41,0,0,1,5.33,5.56c.11,4.54.12,9.08,0,13.61-.09,3.35-2.3,5.49-5.33,5.49s-5.18-2.13-5.34-5.48C142.05,40.62,142.14,38.31,142.14,36Z"/><path class="cls-1" d="M163.91,28.88c1-1.83,1.52-3.3,2.48-4.36,2.33-2.57,4.82-5,7.35-7.4,2.75-2.59,5.84-2.64,8.07-.28s2,5.25-.55,7.85-5.13,5.21-7.8,7.7c-1.72,1.6-3.94,2.18-5.9.81C166.11,32.18,165.18,30.43,163.91,28.88Z"/><path class="cls-1" d="M130.53,29.11c-.86,1.16-1.64,3.16-3.06,3.87s-4.07.88-5.15,0a81.49,81.49,0,0,1-9.69-9.53c-1.62-1.82-1.12-4.65.58-6.33s4.25-2.52,6.07-1A135.61,135.61,0,0,1,129.55,26.2C130,26.72,130.07,27.69,130.53,29.11Z"/><path class="cls-1" d="M248.6,24.55c-.06.89,0,1.78-.17,2.66a5.21,5.21,0,0,1-4.89,4.49,5,5,0,0,1-5.32-3.9,18,18,0,0,1-.26-5.28,5.28,5.28,0,0,1,5.48-5.05c2.88.13,4.89,2.29,5.09,5.48,0,.53,0,1.06,0,1.6Z"/><path class="cls-1" d="M248.56,50.54c0,5.21-2.56,7.92-6.59,7-2.9-.69-4.19-2.89-4.15-7.11,0-3.89,1.47-6.18,4.29-6.79C246,42.77,248.55,45.57,248.56,50.54Z"/><path class="cls-1" d="M38.41,43c-4.94,0-7.54-2.31-7-6.19.42-2.89,2.59-4.47,6.24-4.53,4.81-.08,7.24,1.27,7.79,4.33C46.17,40.48,43.43,43,38.41,43Z"/><path class="cls-1" d="M64.52,43a23.45,23.45,0,0,1-2.66-.2,5.36,5.36,0,0,1-4.52-5.18,5.26,5.26,0,0,1,4.47-5.21,19.6,19.6,0,0,1,4.53-.13,5.32,5.32,0,0,1,0,10.63c-.61.06-1.24,0-1.87,0Z"/><path class="cls-1" d="M230.16,43c-4.63,0-7.07-1.88-7-5.41s2.49-5.34,7.4-5.31c4.41,0,6.8,1.93,6.77,5.4S234.84,43,230.16,43Z"/><path class="cls-1" d="M256.35,43a23.47,23.47,0,0,1-2.92-.26,5.34,5.34,0,0,1-4.34-5.07,5.28,5.28,0,0,1,4.42-5.26,20.07,20.07,0,0,1,4.52-.15,5.43,5.43,0,0,1,5.39,5.22c.07,2.91-2.22,5.18-5.47,5.43-.53,0-1.06,0-1.6,0Z"/><path class="cls-1" d="M56.87,24.66a23.31,23.31,0,0,1-.26,2.91,5.23,5.23,0,0,1-4.94,4.14A4.93,4.93,0,0,1,46.51,28a18.9,18.9,0,0,1-.18-6.05,5,5,0,0,1,5.46-4.41,5.29,5.29,0,0,1,5,5c.07.71,0,1.42,0,2.14Z"/><path class="cls-1" d="M56.81,49.92c0,5.54-2.3,8.21-6,7.72-3.05-.4-4.69-2.59-4.77-6.34-.1-4.71,1.3-7.14,4.43-7.73a5.25,5.25,0,0,1,6.14,4.21A13,13,0,0,1,56.81,49.92Z"/><path class="cls-1" d="M147.59,3.35a5.52,5.52,0,0,1,5.23,5.41,5.32,5.32,0,0,1-10.64-.19A5.51,5.51,0,0,1,147.59,3.35Z"/><path class="cls-1" d="M147.38,158.71a14.83,14.83,0,0,1-10-3.92c-2.33-2.15-2.64-5.15-.84-7.43a5,5,0,0,1,7.15-1c2.55,1.85,4.71,1.92,7.28,0a5,5,0,0,1,7.18.9,5.31,5.31,0,0,1-.78,7.45A14.8,14.8,0,0,1,147.38,158.71Z"/><path class="cls-1" d="M170.66,132.48a5.26,5.26,0,0,1-5.18,5.36,5.36,5.36,0,0,1-5.4-5.18,5.48,5.48,0,0,1,5.22-5.4A5.38,5.38,0,0,1,170.66,132.48Z"/><path class="cls-1" d="M129.53,127.24a5.4,5.4,0,0,1,5.22,5.37,5.26,5.26,0,1,1-10.51-.08A5.38,5.38,0,0,1,129.53,127.24Z"/></svg>