<svg id="Capa_1" data-name="Capa 1" xmlns="http://www.w3.org/2000/svg" viewBox="0 0 295 281"><defs><style>.cls-1{fill:#fff;}</style></defs><path class="cls-1" d="M11.53,106c.21-.65.46-1.3.63-2C14.38,95.48,21.07,89.74,30,88.47c20.31-2.9,40.6-5.93,60.91-8.83a13.41,13.41,0,0,0,10.77-8Q115.29,43.94,129,16.25C135.27,3.7,151.19.58,161.23,9.94a24.07,24.07,0,0,1,4.71,6.33c3.19,6,6.1,12.17,9.09,18.28,1.44,3,.9,5.31-1.4,6.37s-4.28.11-5.7-2.76q-4.43-8.89-8.79-17.84c-2.37-4.89-6.13-7.76-11.66-7.75s-9.26,2.91-11.65,7.78c-8.74,17.77-17.66,35.45-26.2,53.31-4,8.44-10.25,13-19.52,14.25-19.63,2.63-39.21,5.67-58.82,8.45-5.42.77-9.28,3.38-11,8.6s-.19,9.71,3.7,13.5c14.21,13.83,28.28,27.81,42.66,41.45,6.89,6.54,9.21,13.94,7.5,23.23-3.63,19.74-6.89,39.54-10.26,59.33A12.49,12.49,0,0,0,81,256a95.73,95.73,0,0,0,9.64-5,3.77,3.77,0,0,0,1.38-2.45,28.5,28.5,0,0,0,.07-4.24c.11-6.63,3.77-10.91,10.33-12.11.43-.07.86-.18,1.65-.35a87.63,87.63,0,0,1,0-9.17c1-9.17-1.39-16.59-7.58-24.07-15.68-19-12.43-43.39-2.33-57.88A19.12,19.12,0,0,1,98.42,136c2.19-1.56,2.6-3.39,2.55-5.84-.14-6.11.31-12.24-.12-18.32-1.09-15.46,14.24-23.95,26.2-15.65,6.74-11.68,21.89-12,29.18-.22,5-3.15,10.27-4.08,15.83-1.71s8.66,6.79,9.83,12.92c1-.29,1.88-.56,2.77-.81,8.66-2.5,18.56,3.64,18.41,12.46-.17,10.53,2.64,20.45,4.18,30.63,1.45,9.54,2.71,19.13,1.1,28.79-1.48,8.9-6.18,16.05-12.26,22.48a31.4,31.4,0,0,0-5.41,7.11,19.44,19.44,0,0,0-1.74,7.64c-.25,5.46-.07,10.93-.07,16.4,1.68.19,3.09.27,4.47.51a11.57,11.57,0,0,1,9.46,10.4,4.2,4.2,0,0,1,0,1.06c-1.14,5.26,1.39,8.15,6.14,9.77,1.66.56,3.13,1.64,4.75,2.34a12.5,12.5,0,0,0,17.41-13.51q-5.2-30.74-10.5-61.44c-1.35-7.79.86-14.29,6.49-19.76q16.2-15.72,32.34-31.49c3.81-3.71,7.58-7.44,11.42-11.12,4-3.83,5.67-8.33,3.83-13.7-1.77-5.22-5.66-7.79-11.07-8.57-20.31-2.89-40.6-5.91-60.9-8.88-7.26-1.06-12.68-4.76-16-11.29s-6.63-13.29-9.89-20c-1.28-2.61-.66-4.85,1.49-5.92s4.32-.25,5.63,2.37q4.8,9.6,9.51,19.26a12.92,12.92,0,0,0,10.39,7.66c20.3,2.93,40.6,6,60.9,8.87,8.58,1.23,14.67,5.65,17.47,13.87S283,117.9,276.8,124q-21.92,21.46-43.94,42.81a14,14,0,0,0-4.31,13.44q5.37,30.57,10.44,61.18c1.3,7.82-1.38,14.39-7.56,19.25s-13.36,5.72-20.75,2.65c-2.52-1-4.9-2.41-8-3.94,1.07,8.1-1,14.34-9,17.16H137.93c-.91-1.21-2.33-2.31-2.62-3.65-.58-2.65,1.5-4.31,4.92-4.31h49.36c4.19,0,5.3-1.12,5.31-5.36,0-6.1,0-12.2,0-18.31,0-3.53-1.26-4.78-4.8-4.82-4.43,0-8.85,0-13.27,0H105.44c-4.25,0-5.34,1.12-5.35,5.36,0,6.1,0,12.2,0,18.31,0,3.54,1.28,4.81,4.76,4.83,4.78,0,9.56.05,14.33,0,2.27,0,4.32.28,5.2,2.71s-.58,4-2.39,5.28H101.29c-8.06-2.8-10-9.08-9.09-17.11-3.09,1.54-5.54,3-8.15,4-7.32,2.93-14.3,2.09-20.5-2.8S54.7,249.18,56,241.36q5.09-30.6,10.44-61.17a14,14,0,0,0-4.32-13.44c-13.43-13-26.7-26.13-40.18-39.06-4.72-4.53-9-9.17-10.41-15.84ZM180.9,232c0-5.64,0-11,0-16.39a25.68,25.68,0,0,1,7.33-18.23c2-2.14,4-4.25,5.82-6.54,7-8.91,9.5-24.93,5.58-35.44-7.82,7.6-19.64,6-25-4.73A16.48,16.48,0,0,1,159,151.71a2.4,2.4,0,0,0-2,.56,22.56,22.56,0,0,1-12.29,5.8c-4.6.61-9.25.75-14,1.09,0-.19,0-.07,0,0,.44.65.91,1.3,1.37,1.94,4.36,6.09,6.71,12.81,6.25,20.37-.18,3.07-1.89,4.86-4.28,4.73s-3.8-2-3.64-5.15a21.21,21.21,0,0,0-4.17-14.22c-2-2.56-4.58-4.61-6.88-6.91-1.67-1.67-2.55-3.59-1.72-6s2.69-3.44,5-3.72a21.11,21.11,0,0,1,4,.08c2.65.2,5.28.61,7.93.68,5.26.16,10.47-.17,15.1-3.1,3-1.9,4.85-4.49,4.47-8.6h-3c-12.92,0-25.85.13-38.77-.07a12.74,12.74,0,0,0-11.75,6.28c-6.24,9.61-8,20.11-5.89,31.25,1.76,9.36,7,16.9,13.3,23.76a14.69,14.69,0,0,1,4.08,10.83c-.15,5.93,0,11.86,0,17.79,0,.93.09,1.86.14,2.88ZM174,123h0v-6.9c0-2.38.08-4.77,0-7.15a8.25,8.25,0,0,0-8.16-8.11c-4.61.06-8,3.56-8,8.4q-.06,10.2,0,20.41a3.53,3.53,0,0,0,.83,2.53c3.56,2.53,4,6.09,3.43,9.91-.3,1.88.31,2.5,2,2.9,5.05,1.21,9.82-2.64,9.93-8.21C174,132.23,174,127.63,174,123Zm-24.16,8.11c0-9.16,0-18.09,0-27,0-5.33-3.28-8.87-8.08-8.88s-8.1,3.51-8.12,8.83c0,8.31,0,16.62,0,24.93,0,.68.13,1.35.21,2.13Zm-24.59,0c0-7.24,0-14.22,0-21.2,0-5.27-3.28-9-8-9.07s-8.28,3.66-8.32,9c-.05,6.37,0,12.74,0,19.1,0,.68.13,1.36.21,2.13ZM195.38,133h0c0-4.24.09-8.49,0-12.73a6.68,6.68,0,0,0-13.35.19q-.1,12.2,0,24.41c0,4.28,2.93,7.3,6.8,7.24s6.55-3,6.61-7.17C195.42,141,195.38,137,195.38,133Z"/></svg>