<svg id="Capa_1" data-name="Capa 1" xmlns="http://www.w3.org/2000/svg" viewBox="0 0 295 281"><defs><style>.cls-1{fill:#fff;}</style></defs><path class="cls-1" d="M10.07,149.18V132.55a8.8,8.8,0,0,0,.39-1.55,136.2,136.2,0,0,1,9.1-40.35,11.11,11.11,0,0,0,.39-2.9,33.19,33.19,0,0,0,2.49-3.89c8.67-18.92,20.71-35.36,36.9-48.42,38.41-31,81.73-40.13,128.93-25.89,68.37,20.64,108.78,91,93.41,160.69a137.34,137.34,0,0,1-114.76,106.3c-3.78.55-7.58,1-11.37,1.46H139.44a17.83,17.83,0,0,0-1.78-.45c-6.44-.92-13-1.48-19.33-2.8-54-11.23-96.74-55.64-106.1-110.22C11.36,159.44,10.78,154.3,10.07,149.18ZM108.72,18.61l-.34.85c2.24.9,4.41,2.2,6.74,2.64,7.37,1.43,14.8,2.51,22.2,3.76,5,.85,6.39,3.07,4.81,7.89-1.22,3.73-2.52,7.44-3.71,11.18a6,6,0,0,1-4.15,4.17c-3.06,1-6.15,1.89-9.13,3.09A7,7,0,0,0,122,54.74c-3.7,5.9-7.15,12-10.88,17.85a14.27,14.27,0,0,1-4.27,4.24Q97.55,82.7,88,88.14a20.66,20.66,0,0,1-6.71,2.4c-7.76,1.27-15.56,2.31-23.36,3.33-1.57.21-2,.81-2.13,2.35-.4,3.92.39,7.18,3.79,9.58A11.81,11.81,0,0,1,62.78,109,16.65,16.65,0,0,1,65,114.24a27.39,27.39,0,0,1,.08,5.44l.7.25c1.47-1.54,2.9-3.13,4.43-4.61,3.43-3.31,6.55-2.78,8.74,1.5,2,3.89,4,7.78,5.82,11.76,1,2.14,2.11,3,4.6,2.95,8.23-.2,16.47,0,24.69-.12a6.28,6.28,0,0,1,6.11,3.44c3.45,6,7,11.86,10.66,17.67a4.45,4.45,0,0,0,3.11,1.76c3.92.21,7.86.08,11.8.09,5.28,0,7,2.06,6,7.2-1.25,6.31-2.35,12.65-3.88,18.9a15.73,15.73,0,0,1-3.33,6.15,52.65,52.65,0,0,1-8.14,8.14c-5.88,4.47-8.46,10-7.12,17.3a1.22,1.22,0,0,1,0,.27,6.55,6.55,0,0,1-3.06,6.14c-4.41,3.21-8.7,6.59-13.14,9.76a4.46,4.46,0,0,0-2.15,4.18c.14,5.45.07,10.91.05,16.36s-2.53,7.22-7.54,5.58c-3.64-1.2-7.25-2.52-10.92-3.64a6.76,6.76,0,0,1-4.66-4.38c-2.55-6.57-5.31-13.07-7.81-19.66a17.74,17.74,0,0,1-1.11-6c-.1-12.26,0-24.51,0-36.76v-3c-6-1.18-11.65-2.36-17.35-3.41a7.22,7.22,0,0,1-5.88-4.44,66,66,0,0,0-4.33-8.61c-3.75-6-4.91-12.38-4.71-19.4.12-4.56,1.06-8.2,4.73-11a18.5,18.5,0,0,0,1.92-2c-7.08-4.73-13.94-9.41-20.91-13.91a9.85,9.85,0,0,1-4.4-5.79c-.83-2.86-1.85-5.65-2.95-8.94A128,128,0,0,0,90.47,255.37c55.95,28,123.25,10.85,159.75-38.27-1.42-1.21-3-2.38-4.38-3.78-8-8.21-6.53-4.67-6.69-16,0-2.51.12-5-.05-7.51a11.59,11.59,0,0,0-1-4.33c-3.56-7.31-6.86-14.78-11-21.76-5-8.47-7.38-17.28-6.36-27.06.12-1.14-.33-3-1.12-3.45-3.42-1.87-5.84-5.61-10.23-5.64a6.79,6.79,0,0,0-1.57.34c-4.16,1-8.3,2.17-12.49,3a8,8,0,0,1-4.4-.23c-10.39-4.33-20.74-8.73-31-13.35a6.14,6.14,0,0,1-3.14-3.9c-1.67-10.14-3-20.33-4.48-30.5a6.77,6.77,0,0,1,2.17-6.27c4-3.85,7.75-7.95,11.87-11.65a9.22,9.22,0,0,1,5.41-2.23c7.24-.25,14.51.21,21.73-.2,5-.28,8.51,1.07,10.58,5.71,3,6.71,8,10.39,15.52,10.13a3.6,3.6,0,0,1,1,.23c8.88,2.49,17.51,2.12,26-1.89,3.09-1.47,6.52-2.25,10.29-3.51L243.09,54.92c-3.47,2.31-6.51,4.51-9.73,6.38a7.56,7.56,0,0,1-4.73,1.19c-11-2.24-22.2-3.73-32.82-7.71a8.94,8.94,0,0,0-5.62-.16c-9.9,3.5-19.61,4.18-29.21-.87a1.83,1.83,0,0,0-.25-.08c-3.89-1.38-5-3.8-3.17-7.51,2.73-5.62,5.58-11.19,8.34-16.8a5.32,5.32,0,0,1,5.36-3.22c4.38.09,8.77-.15,13.15.08s7.35-2.45,11.22-4.14C170.27,11.09,137,9,108.72,18.61Zm152.34,63c-7.94,2.65-15.7,5.32-23.52,7.81a12.05,12.05,0,0,1-5.23.45c-8.21-1.24-16.39-2.72-24.59-4a7.11,7.11,0,0,1-5.23-3.32c-1.92-3-3.85-6-6-8.89a4.34,4.34,0,0,0-2.9-1.67c-6.53-.15-13.06-.12-19.59,0a4.52,4.52,0,0,0-2.78,1.12c-2.94,2.75-5.8,5.59-8.54,8.53a3.84,3.84,0,0,0-.86,2.77c1,7.88,2.14,15.76,3.39,23.61a4,4,0,0,0,2,2.62q12.35,5.5,24.85,10.68a6.31,6.31,0,0,0,3.58.22c4.44-1,8.85-2.14,13.25-3.3a7.46,7.46,0,0,1,6.6,1.12q5.58,3.95,11.37,7.59A6.21,6.21,0,0,1,230,132.7c-.06,4.56-.11,9.12,0,13.68a11.69,11.69,0,0,0,1.12,4.57c3.42,7.07,6.61,14.3,10.59,21.05,5.15,8.77,7.84,17.88,6.58,28a4.3,4.3,0,0,0,0,1.6,5.14,5.14,0,0,0,.9,2.11c1.82,2.08,3.75,4.06,5.7,6.13C279.38,174.19,283.09,122.13,261.06,81.62ZM72.94,125.4c-5.59,5.61-10.87,10.83-16,16.15a5.17,5.17,0,0,0-1,2.86,23.61,23.61,0,0,0,3.58,16.08c1.26,1.93,2,4.23,3.24,6.15A5.87,5.87,0,0,0,65.85,169c5.74,1.32,11.55,2.35,17.31,3.56,3.72.79,4.76,2.14,4.77,5.93,0,8.59.49,17.21-.11,25.75a68.27,68.27,0,0,0,6.69,34.71c1.62,3.42,3.8,4.44,7.23,4.89,0-5,.1-9.81,0-14.62a6.84,6.84,0,0,1,3.22-6.33c2.43-1.67,4.75-3.5,7.1-5.29,2.62-2,6.21-3.54,7.55-6.2s.54-6.46.44-9.75a7.51,7.51,0,0,1,2.52-5.92c4.93-4.82,9.76-9.72,14.62-14.6.56-.57,1.37-1.13,1.52-1.82,1.12-5.11,2.11-10.26,3.21-15.74-3.87,0-7.34-.11-10.8,0a6.68,6.68,0,0,1-6.76-3.76c-3.16-5.61-6.67-11-9.84-16.6a4.48,4.48,0,0,0-4.57-2.68c-8.14.17-16.28-.08-24.42.13-3.68.1-5.83-1.29-7.26-4.59C76.71,132.58,74.85,129.23,72.94,125.4Zm-17.32-2.71c.5-4.53.88-8.45-3.17-11.19a33.54,33.54,0,0,1-3.26-3.17,7.28,7.28,0,0,1-2.52-6c.08-3.48,0-7,0-10.46,0-4.34,1.24-5.83,5.46-6.45,5.57-.83,11.17-1.46,16.72-2.37,6.44-1.07,13.1-1,18.82-5.24,4.8-3.53,10.94-5.52,15-9.64s6.76-9.85,9.41-15.19c2.91-5.89,7-9.77,13.58-10.69,4.68-.67,5.66-4,6.34-8-3.21-.56-6.27-1.27-9.36-1.58-8.68-.87-16.84-3-23.56-9-1.26-1.11-2.39-1-3.86-.29q-44,20.3-64.47,64.21a5.3,5.3,0,0,0-.24,3.49c1.8,5.79,3.77,11.53,5.75,17.27a4.38,4.38,0,0,0,1.34,2.19C43.48,114.64,49.36,118.52,55.62,122.69ZM167.81,46.13C174,49,174.52,49,180.55,47.49c3.55-.9,7.09-1.89,10.67-2.6a8.26,8.26,0,0,1,4.42.17c10.16,3.88,20.8,5.78,31.39,7.87a3.81,3.81,0,0,0,2.34,0c2.34-1.37,4.56-2.95,7-4.55a125.4,125.4,0,0,0-28.61-20.82,3.44,3.44,0,0,0-2.66.14c-4.28,2-8.44,4.29-12.75,6.23a16,16,0,0,1-5.63,1.32c-3.84.2-7.7,0-11.54.13a3.71,3.71,0,0,0-2.65,1.51C170.82,39.83,169.41,42.92,167.81,46.13Z"/></svg>