<svg id="Capa_1" data-name="Capa 1" xmlns="http://www.w3.org/2000/svg" viewBox="0 0 295 281"><defs><style>.cls-1{fill:#fff;}</style></defs><path class="cls-1" d="M287.24,185.75c-1,3.94-1.62,8-3.05,11.78a39.74,39.74,0,0,1-22.43,23.24,3.48,3.48,0,0,0-2.46,3.83c.1,14.73.05,29.47.05,44.2,0,5.2-1.49,6.73-6.6,6.73q-30.7,0-61.39,0c-5.12,0-6.59-1.53-6.6-6.73q0-20.6,0-41.2v-3.23c-16.49-.79-28.81-8.27-37.21-22.72C139.2,216,127,223.6,110.34,224.34v3.13q0,20.6,0,41.2c0,5.4-1.42,6.86-6.74,6.86q-30.56,0-61.11,0c-5.3,0-6.73-1.48-6.73-6.87,0-14.73,0-29.47,0-44.2a3.37,3.37,0,0,0-2.33-3.63c-16.84-7.7-25.28-21.07-25.54-39.39-.28-19.64-.12-39.29,0-58.94C8,98.39,26.23,80.13,50.38,79.9c1.25,0,2.5,0,4,0,0-1.63-.09-3,0-4.31.26-3.09,1.7-4.54,4.77-5,5.69-.81,9.19-4.34,9.19-9.29S64.92,52.83,59.23,52c-3.19-.46-4.75-2-4.8-5.23q-.16-11.06,0-22.1c.06-3.66,2-5.3,5.81-5.32,8.28-.05,16.55-.06,24.83,0,1.76,0,2.69-.36,3.38-2.19a18.49,18.49,0,0,1,34.45.08c.63,1.7,1.43,2.12,3.12,2.11,15.82-.06,31.65,0,47.47,0,4.83,0,6.12,1.12,6.79,5.83a9.26,9.26,0,0,0,18.28.69c1.41-6.21,1.8-6.53,8.1-6.53,7.64,0,15.27,0,22.91,0,4.85,0,6.41,1.55,6.42,6.33,0,5.81,0,11.62,0,17.43,8.87,3.13,14,9.18,13.9,18.55s-5.73,14.94-14.38,18.1l.59.8c1.44-.2,2.88-.49,4.32-.59,26.53-1.87,43.92,16.65,46.36,36.08a3.15,3.15,0,0,0,.46.94ZM250,266V262.8q0-21.15,0-42.29c0-4.76.51-5.45,5.08-7.08,14.43-5.14,22.78-16.8,22.82-32.1q.09-29.46,0-58.93a34.3,34.3,0,0,0-.9-7.82c-4-16.46-18.84-26.93-35.82-25.35-3,.28-5.11,2.25-5.11,4.69,0,2.71,2.07,4.41,5.34,4.6s6.43.08,9.46.88c11.19,2.93,17.73,11.8,17.76,23.75q.06,28.9,0,57.83a15.85,15.85,0,0,1-.85,5.06c-2.31,6.63-7.95,10.25-16,10.28-15.37.05-30.74.07-46.1,0-5.11,0-9,1.58-11.23,6.47a4.64,4.64,0,0,1-2.91,2.54c-7,.82-14,.75-20-3.84-7-5.37-10-12.61-10-21.36.08-23.18,0-46.37,0-69.56a20.62,20.62,0,0,0-.24-3.52,4.11,4.11,0,0,0-4.37-3.68,4.35,4.35,0,0,0-4.46,3.64,12.42,12.42,0,0,0-.24,3q0,35.73,0,71.47a31.79,31.79,0,0,0,2.93,14.29c6.31,12.87,16.78,19.12,31,19.27,7.15.07,7.92.82,7.92,8.05V266Zm-149,0v-3.34q0-20.74,0-41.47c0-4.72,1.47-6.1,6.21-6.23a57.15,57.15,0,0,0,8.69-.56c16.23-3,26.89-16.21,26.93-33.45q.07-35.32,0-70.65a12.46,12.46,0,0,0-.29-3.52,4.32,4.32,0,0,0-4.61-3.45,4.13,4.13,0,0,0-4.14,3.63,18.78,18.78,0,0,0-.26,3.52c0,23.19-.06,46.37,0,69.56,0,8.19-2.55,15.12-8.87,20.52-6.12,5.23-13.4,5.58-20.84,4.76-1.22-.13-2.71-1.59-3.3-2.81-2.26-4.61-5.94-6.27-10.84-6.23-8.72.09-17.45,0-26.18,0-7.73,0-15.46.14-23.18-.2S26.48,189,26.46,181.29c0-19.46,0-38.92,0-58.38,0-13.47,9.7-23.37,21.48-24.15l6.23-.42v-8.9a32.78,32.78,0,0,0-37,32.35c-.17,20-.06,40,0,60a31.94,31.94,0,0,0,.8,7.29c2.83,12.1,10.19,20.19,21.93,24.3,4.69,1.65,5.15,2.32,5.15,7.31V266ZM142.86,28.65h-3c-6.27,0-12.55,0-18.82,0-4.17,0-5.59-1.25-6.15-5.27-.74-5.28-4.28-8.56-9.22-8.56s-8.56,3.36-9.29,8.56c-.58,4.11-1.88,5.26-6.08,5.27-7.82,0-15.64,0-23.46,0H63.7c0,4.4.07,8.39,0,12.37a2.61,2.61,0,0,0,2,3,18.45,18.45,0,0,1,12,17.23A18.74,18.74,0,0,1,65.85,78.62a3.8,3.8,0,0,0-1.59,5.66c1.77,3,3.35,6,5,9.07.18.52,1,.58,1.79.58,6.45,0,12.91,0,19.37,0,4,0,5.34,1.24,5.92,5.16a13,13,0,0,0,.81,3.14,9.25,9.25,0,0,0,17.65-2.35c.77-5.09,1.75-6,6.88-6h21.17c0-4.73,0-9.08-.06-13.43a2.47,2.47,0,0,0-1.4-1.65c-8-3.23-12.42-9.16-12.34-17.78.08-8.38,4.44-14.15,12.25-17.3.63-.26,1.46-1,1.48-1.58C142.91,37.77,142.86,33.35,142.86,28.65Zm83.83,0c-6.18,0-12.07,0-17.95.09-.64,0-1.52,1.06-1.83,1.82A18.93,18.93,0,0,1,189.4,42.7c-7.71,0-14.37-4.76-17.38-12.25-.27-.67-.9-1.69-1.38-1.7-6.06-.11-12.12-.07-18.42-.07,0,6.07.05,11.79,0,17.51,0,3.82-1.45,5.36-5,5.84-5.45.72-8.88,4.29-8.89,9.24s3.47,8.62,8.84,9.31c3.55.46,5,1.91,5.07,5.51.1,4.91,0,9.82,0,14.73,0,1,.1,1.92.17,3.11,6.07,0,11.88,0,17.68-.06a2.69,2.69,0,0,0,1.83-1.48c3.15-8,9.05-12.15,17.5-12.43,7.79-.26,14.23,4.5,17.58,12.35.28.63,1,1.53,1.5,1.54,6,.11,11.95.07,18.2.07,0-5.63.13-11,0-16.32-.14-4.24,1.26-6.82,6.08-7.19s8-4.71,7.93-9.27a9.4,9.4,0,0,0-8-9c-5.16-.83-6-1.82-6-7.15Zm-56.27,74.62c.16,2.93.43,5.47.43,8q0,34.1,0,68.2c0,1.37,0,2.74.15,4.09a13.84,13.84,0,0,0,14.67,12.73,3.29,3.29,0,0,0,2.26-1.06c4.37-6.13,10.44-8.3,17.73-8.25,14.91.1,29.82,0,44.73,0a28.43,28.43,0,0,0,3.81-.16,5.87,5.87,0,0,0,5.1-5.8c0-19.55.06-39.11,0-58.66,0-5.7-2.36-10.44-7.69-12.79a26.18,26.18,0,0,0-9.23-1.68c-3.83-.18-7.34-.78-10.48-3.18a7,7,0,0,0-3.85-1.4c-7.64-.13-15.27,0-22.91-.07-4.46,0-5.77-1.17-6.43-5.58a9.2,9.2,0,0,0-6.26-7.89c-5.72-2-11.36,1.7-12.23,8-.54,4-2,5.34-5.77,5.46C173.12,103.3,171.77,103.27,170.42,103.27Zm-45.77.14-.67-.2a17.63,17.63,0,0,0-.92,1.78,18.4,18.4,0,0,1-17.4,12.14,18.18,18.18,0,0,1-17.28-11.86,2.63,2.63,0,0,0-2.94-2c-6.27.09-12.55,0-18.82.06-.79,0-1.84,0-2.31.45-3.93,3.9-8.82,4.09-13.93,4.15-8.76.11-14.56,5.92-14.6,14.63-.1,19.46,0,38.92,0,58.38A5.92,5.92,0,0,0,41,186.85a27.87,27.87,0,0,0,3.54.15c15.09,0,30.19.06,45.28,0,7.09,0,13,2.26,17.23,8.14a3,3,0,0,0,2,1.15c4.39.31,8.23-.88,11.24-4.31s4-7.21,3.95-11.56q-.08-35.06,0-70.11C124.21,108,124.5,105.71,124.65,103.41Z"/><path class="cls-1" d="M254.59,145.13A32.54,32.54,0,1,1,222,112.58,32.45,32.45,0,0,1,254.59,145.13Zm-55,4.82c1.21,9.29,10.29,17.54,20.21,18.34a23.19,23.19,0,0,0,24.66-17.12c2.69-9.61-1.64-21-9.5-25C224.83,145.21,221.26,147.61,199.58,150Zm26.29-27.47c-11.42-2.87-25.25,6.63-26.23,17.82C212.6,141.5,223.33,134.26,225.87,122.48Z"/><path class="cls-1" d="M73.17,177.67a32.54,32.54,0,1,1,32.41-32.73A32.44,32.44,0,0,1,73.17,177.67ZM60.29,125.9a23.14,23.14,0,0,0,15.19,42.37c10-1,18.6-8.81,20.11-18.48-7.77.23-15.13-1-21.74-5.44S62.81,133.74,60.29,125.9ZM95.6,140.29c-2.26-13.52-16.91-20.68-26.27-17.71C71.32,133.9,82.41,141.44,95.6,140.29Z"/></svg>