<svg id="Capa_1" data-name="Capa 1" xmlns="http://www.w3.org/2000/svg" viewBox="0 0 295 281"><defs><style>.cls-1{fill:#fff;}</style></defs><path class="cls-1" d="M119.75,3.5c5.34.89,10.72,1.57,16,2.73a95.59,95.59,0,0,1,30,12.3c2.64,1.62,3.31,3.92,1.89,6-1.27,1.89-3.44,2.19-5.9.91-4.25-2.22-8.56-4.33-12.79-6.59-1.5-.81-2.55-.47-3.84.48-9,6.6-18,13.09-26.93,19.72a4.3,4.3,0,0,0-1.52,3c-.14,7.22,0,14.44-.11,21.67a3.74,3.74,0,0,0,1.8,3.48q15,10.77,29.81,21.69a3.38,3.38,0,0,0,3.62.55c6.56-2.49,13.19-4.81,19.74-7.35a4.48,4.48,0,0,0,2.31-2.47c3.57-10.63,7-21.31,10.51-32a3,3,0,0,0-.75-3.56c-2.53-2.51-4.92-5.15-7.44-7.66S173.28,31.83,175,30s4.08-1.71,6.52.59a101.73,101.73,0,0,1,31.84,61.63C219.71,137.68,193.32,183,150.49,200A101.75,101.75,0,0,1,12.6,124.54a100.17,100.17,0,0,1,5-55.7c.87-2.28,2.21-3.68,4.76-3.29a3.59,3.59,0,0,1,3.24,3.68,10.12,10.12,0,0,1-.94,3.57c-3.4,9.31-5.74,21-5.55,28.36,8.38-6.09,16.55-12,24.83-18C40.77,73.48,37.68,63.94,34.45,54c-.63.75-1.07,1.22-1.45,1.73-1.77,2.42-3.9,3-5.91,1.72s-2.36-3.59-.8-6.09A99.37,99.37,0,0,1,46.64,27.78,100.44,100.44,0,0,1,103.27,4a15.19,15.19,0,0,0,2.06-.45ZM185.83,164h-3.27l-21.9,0c-2.13,0-4.79-.75-6.25.25s-1.83,3.77-2.66,5.77c-1,2.31-2.94,3.35-5.12,2.66s-3.14-2.75-2.46-5.16c.59-2.05,1.44-4.05,1.85-6.13a4.71,4.71,0,0,0-.57-3.31c-3.61-5-7.35-9.87-11.17-14.68a4.16,4.16,0,0,0-2.81-1.45q-19-.15-37.93,0a3.85,3.85,0,0,0-2.63,1.3q-6.28,8-12.3,16.17a4,4,0,0,0-.5,3.06c3.36,10.7,6.87,21.35,10.27,32a3.2,3.2,0,0,0,2.69,2.46,92.34,92.34,0,0,0,41.8.17,3.81,3.81,0,0,0,2.27-2.11c1.28-3.41,2.26-6.93,3.43-10.39.91-2.7,3.06-3.94,5.27-3.16s3.15,2.93,2.32,5.72c-.62,2.09-1.29,4.15-2.09,6.75A95.29,95.29,0,0,0,185.83,164ZM108.53,53.2c0-3.65.13-7.31-.07-11a4.74,4.74,0,0,0-1.6-3.21c-8.93-6.65-18-13.13-26.93-19.73a3.36,3.36,0,0,0-3.85-.4A92.15,92.15,0,0,0,41.54,44.27a4,4,0,0,0-.71,3.23q5.09,16.17,10.5,32.24a4.54,4.54,0,0,0,2.37,2.41q9.82,3.8,19.77,7.25a4.16,4.16,0,0,0,3.3-.47Q92,78.06,107,66.92a4.43,4.43,0,0,0,1.46-3C108.64,60.34,108.53,56.77,108.53,53.2Zm64.11,102.64V156c5.43,0,10.86-.12,16.27.06,2.13.08,3.16-.77,4.16-2.47A94.24,94.24,0,0,0,206,113.23a3.2,3.2,0,0,0-1.5-3.32c-9-6.48-18-13.09-27-19.53a4.49,4.49,0,0,0-3.53-.46c-6.46,2.22-12.83,4.71-19.28,7a4.17,4.17,0,0,0-2.94,3q-5.56,17.53-11.36,35a3.67,3.67,0,0,0,.61,3.88q5.94,7.56,11.65,15.29a4,4,0,0,0,3.79,1.82C161.79,155.78,167.22,155.84,172.64,155.84ZM52.2,156c5.52,0,11,0,16.55,0a3.85,3.85,0,0,0,3.57-1.69q5.78-7.85,11.81-15.52a3.67,3.67,0,0,0,.64-3.87c-3.88-11.74-7.63-23.52-11.54-35.25a4.5,4.5,0,0,0-2.3-2.49q-9.93-3.87-20-7.36a3.87,3.87,0,0,0-3.06.42q-13.8,9.85-27.41,19.94a3.76,3.76,0,0,0-1.27,2.8,92,92,0,0,0,13,40.83,3.73,3.73,0,0,0,3.76,2.2C41.35,155.86,46.78,156,52.2,156Zm60.35-83c-10.36,7.54-20.65,15-30.88,22.56a2.47,2.47,0,0,0-.52,2.2q5.44,17.18,11.11,34.28a3.21,3.21,0,0,0,2.35,1.76q17.88.17,35.78,0a3.22,3.22,0,0,0,2.39-1.68q5.72-17.1,11.12-34.28a2.72,2.72,0,0,0-.64-2.4C133.11,87.84,122.88,80.42,112.55,72.9Zm0-39.76L137.4,15c-13.69-4.67-40.93-4.48-49.39.25Zm93.64,68.14A95.16,95.16,0,0,0,190.73,53.7c-3.32,10.21-6.41,19.74-9.55,29.4ZM39.27,164a95.17,95.17,0,0,0,40.37,29.38c-3.18-9.83-6.13-19-9.2-28.21-.18-.55-1.31-1.09-2-1.12-3.2-.12-6.4-.05-9.61-.05Z"/><path class="cls-1" d="M279,277.5c-1.05-.95-2.15-1.85-3.14-2.84L196.32,195c-3-3-3.48-5-1.59-7.07s4.16-1.69,7.25,1.4q39.84,39.9,79.67,79.81c.93.94,1.76,2,2.64,3v5.35Z"/><path class="cls-1" d="M225.6,76.79a21.71,21.71,0,0,1,3.48,2.26q21.67,21.61,43.27,43.3c2.2,2.21,2.33,4.57.48,6.32s-4,1.48-6.12-.65q-21.63-21.65-43.25-43.32c-1.35-1.35-2.33-3-1.27-4.75C222.93,78.73,224.35,77.91,225.6,76.79Z"/><path class="cls-1" d="M125,249.15c-.09,3.51-3,5.42-5.54,4.28a7.67,7.67,0,0,1-2.09-1.59q-17.09-17.07-34.13-34.18a8.57,8.57,0,0,1-1.5-1.85c-.92-1.69-.78-3.58.78-4.53,1.24-.75,3-.68,4.6-.7.54,0,1.13.79,1.63,1.28Q106,229,123.07,246.25A15.66,15.66,0,0,1,125,249.15Z"/><path class="cls-1" d="M139.9,210.14a18.52,18.52,0,0,1,3.49,2.08q17,16.93,34,34c2.08,2.1,2.14,4.39.37,6.12s-4,1.51-6.11-.57Q154.71,234.89,137.84,218c-1.38-1.38-2.2-3-1.18-4.78C137.34,212,138.7,211.22,139.9,210.14Z"/><path class="cls-1" d="M230.32,137.19a18.91,18.91,0,0,1,3.5,2.16q17,16.93,34,34c2,2,2,4.22.4,5.92s-4,1.73-6.11-.35q-17-17-34-34c-1.37-1.38-2.16-3-1.06-4.79C227.77,139,229.12,138.24,230.32,137.19Z"/><path class="cls-1" d="M219,248.78c0,3.75-3.23,5.71-5.9,4.24a8.56,8.56,0,0,1-1.84-1.52q-9.74-9.72-19.43-19.47c-2.4-2.41-2.64-4.66-.77-6.5s4.13-1.47,6.5.9c6.43,6.41,12.87,12.82,19.24,19.29A19.5,19.5,0,0,1,219,248.78Z"/><path class="cls-1" d="M245.58,195.16a20,20,0,0,1,3.47,2.13q10.26,10.14,20.4,20.4c2,2,2,4.5.29,6.13s-3.91,1.54-5.92-.46c-6.89-6.84-13.8-13.66-20.49-20.69a5.61,5.61,0,0,1-1-4.54C242.65,197,244.36,196.21,245.58,195.16Z"/></svg>