<?xml version="1.0" encoding="utf-8"?>
<!-- Generator: Adobe Illustrator 24.3.0, SVG Export Plug-In . SVG Version: 6.00 Build 0)  -->
<svg version="1.1" id="Capa_2_1_" xmlns="http://www.w3.org/2000/svg" xmlns:xlink="http://www.w3.org/1999/xlink" x="0px" y="0px"
	 viewBox="0 0 219.5 80" style="enable-background:new 0 0 219.5 80;" xml:space="preserve">
<style type="text/css">
	.st0{fill:#10479E;}
</style>
<g>
	<g>
		<g>
			<path class="st0" d="M78.5,48.7c-0.9-0.6-2.1-0.9-3.2-0.9h-0.1c-1.9,0-3.2,0.9-4.3,1.7l-0.2,0.2h0.7c1.9,0,2.5,0.3,3.7,0.9
				c0.2,0.1,0.5,0.4,0.8,0.6c1.6,1.5,1.6,4.5-0.6,5.1c-0.1-1.6-2.2-3.7-4-3.7h-0.4c-0.7,0-1.1,0.2-1.5,0.4L69,53.2v0.1
				c0.7,0.2,1.5,0.9,2,1.4c0.6,0.7,1.1,1.7,0.7,2.7c-1.7,0-3.6-1.5-4.3-2.5c-0.5-0.7-1.1-2-1.5-3.3c-1.8-7.1,2.9-18.6,7.8-23
				c1-0.9,2.3-1.5,2.5-1.5c0,0,0,0,0.1,0l0,0c0.4,0,0.7,0.8,2.2,0.5c0.9-0.1,2.4-1.1,2.4-2.4c0-2.9-3.9-2.8-5.9-2.4
				c-2.3,0.5-4.6,1.5-6.4,2.7c-0.9,0.6-1.8,1.2-2.6,1.9c-0.9,0.7-2.4,2-3.1,2.9c-0.4,0.6-0.9,1-1.4,1.6c-0.2,0.3-1.1,1.6-1.3,1.7
				c-0.1-1.7-2.8-11.5-5.1-11.4l0,0l0,0c-2.4-0.2-5,9.6-5.1,11.4c-0.2-0.1-1-1.4-1.3-1.7c-0.5-0.6-0.9-1.1-1.4-1.6
				c-0.7-0.9-2.2-2.2-3.1-2.9c-0.8-0.6-1.7-1.3-2.6-1.9c-1.9-1.2-4.2-2.3-6.4-2.7c-2-0.4-5.9-0.4-5.9,2.4c0,1.3,1.6,2.3,2.4,2.4
				c1.5,0.3,1.8-0.5,2.2-0.5l0,0c0,0,0,0,0.1,0c0.2,0,1.5,0.6,2.5,1.5c4.9,4.4,9.7,15.9,7.8,23c-0.3,1.3-1,2.7-1.5,3.3
				c-0.8,1-2.7,2.5-4.3,2.5c-0.4-1,0.1-2,0.7-2.7c0.4-0.5,1.3-1.3,2-1.4v-0.1L40.8,53c-0.5-0.2-0.8-0.4-1.5-0.4h-0.4
				c-1.8,0-3.9,2.1-4,3.7c-2.1-0.6-2.2-3.6-0.6-5.1c0.3-0.3,0.6-0.5,0.8-0.6c1.2-0.7,1.8-0.9,3.7-0.9h0.7l-0.2-0.2
				c-1.2-0.8-2.4-1.7-4.3-1.7h-0.1c-1.1,0-2.3,0.3-3.2,0.9c-4.3,2.7-2.5,10.5,2.5,11.3c0.4,0.1,0.6,0.1,0.8,0.2c0,0,0.3,0.4,0.8,1
				c1.1,1.5,2.8,2.3,4.7,2.6c1.7,0.3,3.4,0.1,4.9-0.7c1.2-0.6,2.5-1.8,2.9-2.4c0.4-0.7,1-1.4,1.3-2.3c1-3,1.6-6.6,2-9.9
				c0.2-1.6,0.6-5.3,0.6-6.8c0.3,0.5,1.7,3.9,1.7,4.1c0,0.1-1.8,5.6-2.7,8.9c-1,4.1-1.2,9.5-0.3,13.7c0.4,1.9,1.9,6.5,4.3,6.4h0.1
				l0,0l0,0h0.1c2.5,0.1,3.9-4.5,4.3-6.4c0.8-4.2,0.7-9.6-0.3-13.7c-1.1-3.2-2.9-8.7-2.9-8.8c0-0.2,1.4-3.6,1.7-4.1
				c0,1.4,0.4,5.2,0.6,6.8c0.4,3.3,0.9,7,2,9.9c0.3,0.9,0.8,1.6,1.3,2.3c0.4,0.7,1.7,1.8,2.9,2.4c1.5,0.7,3.2,0.9,4.9,0.7
				c1.8-0.3,3.6-1.2,4.7-2.6c0.5-0.6,0.8-1,0.8-1c0.2-0.1,0.4-0.1,0.8-0.2C81,59.2,82.8,51.5,78.5,48.7z M48.9,43.3
				c-0.2,4.4-0.6,10.9-2.4,14c-0.5,0.8-1.1,1.7-1.8,2.3c-0.9,0.8-2.2,1.5-4.3,0.4c1.1-0.4,2.1-0.7,3.1-1.4c2.1-1.4,3.1-3,3.8-5.5
				c1-4.1,0.9-8.4-0.2-12.4c-0.3-1.1-0.6-2.1-0.9-3c-0.6-1.7-4.3-7.9-5.2-8.8c3.7,1.9,6,5.5,8.2,8.8C49,39.6,48.9,41.4,48.9,43.3z
				 M57,57.8c0.4,3.3,0.8,10.2-2,12.1l0,0l0,0c-2.8-1.9-2.4-8.8-2-12.1c0.4-2.7,0.9-4.4,2-7.9l0,0l0,0C56.1,53.4,56.6,55.2,57,57.8z
				 M55,41.9L55,41.9L55,41.9l-2.4-4.7c0-1.4,1.7-8.2,2.4-8.9l0,0l0,0c0.7,0.6,2.4,7.4,2.4,8.9L55,41.9z M65.3,59.6
				c-0.8-0.6-1.3-1.5-1.8-2.3c-1.8-3.1-2.2-9.6-2.4-14c-0.1-1.8-0.1-3.7-0.2-5.5c2.2-3.3,4.5-6.9,8.2-8.8c-0.9,0.9-4.6,7.1-5.2,8.8
				c-0.3,0.9-0.7,1.9-0.9,3c-1.1,4-1.2,8.4-0.2,12.4c0.6,2.5,1.7,4.1,3.8,5.5c1,0.7,2,1,3.1,1.4C67.5,61.1,66.3,60.4,65.3,59.6z"/>
		</g>
		<path class="st0" d="M54.3,18h-1.4l1.1,1l-0.3,1.4c0.3-0.1,1.1-0.7,1.2-0.7c0.2,0,0.9,0.6,1.3,0.7L55.9,19l1-0.9V18h-1.4l-0.6-1.4
			L54.3,18L54.3,18z"/>
		<path class="st0" d="M40.5,14.9L39.1,15l1.1,1l-0.3,1.4c0.3-0.1,1.1-0.7,1.2-0.7c0.2,0,0.9,0.6,1.3,0.7L42.1,16l1-0.9V15h-1.3
			l-0.6-1.4L40.5,14.9L40.5,14.9z"/>
		<path class="st0" d="M47.9,16.9L46.5,17l1.1,1l-0.3,1.4c0.3-0.1,1.1-0.7,1.2-0.7c0.2,0,0.9,0.6,1.3,0.7L49.5,18l1-0.9V17h-1.3
			l-0.6-1.4L47.9,16.9L47.9,16.9z"/>
		<path class="st0" d="M34.6,11.8l-1.4,0.1l1.1,1L34,14.3c0.3-0.1,1.1-0.7,1.2-0.7c0.2,0,0.9,0.6,1.3,0.7l-0.3-1.4l1-0.9v-0.1h-1.3
			l-0.6-1.4L34.6,11.8L34.6,11.8z"/>
		<path class="st0" d="M41.3,8.5l-1.4,0.1l1.1,1L40.7,11c0.3-0.1,1.1-0.7,1.2-0.7c0.2,0,0.9,0.6,1.3,0.7l-0.3-1.4l1-0.9V8.6h-1.3
			L42,7.2L41.3,8.5L41.3,8.5z"/>
		<path class="st0" d="M48.3,7.2l-1.4,0.1l1.1,1l-0.3,1.4C48,9.6,48.8,9,48.9,9c0.2,0,0.9,0.6,1.3,0.7l-0.3-1.4l1-0.9V7.3h-1.3
			L49,5.9L48.3,7.2L48.3,7.2z"/>
		<path class="st0" d="M55.1,6.4l-1.4,0.1l1.1,1l-0.3,1.4c0.3-0.1,1.1-0.7,1.2-0.7c0.2,0,0.9,0.6,1.3,0.7l-0.5-1.5l1-0.9V6.4h-1.3
			L55.6,5L55.1,6.4L55.1,6.4z"/>
		<path class="st0" d="M62.7,7.3l-1.4,0.1l1.1,1l-0.3,1.4c0.2-0.2,1-0.8,1.1-0.8c0.2,0,0.9,0.6,1.3,0.7l-0.3-1.4l1-0.9V7.3h-1.3
			l-0.6-1.4L62.7,7.3L62.7,7.3z"/>
		<path class="st0" d="M68.9,8.7l-1.4,0.1l1.1,1l-0.3,1.4c0.3-0.1,1.1-0.7,1.2-0.7c0.2,0,0.9,0.6,1.3,0.7l-0.3-1.4l1-0.9V8.8h-1.3
			l-0.6-1.4L68.9,8.7L68.9,8.7z"/>
		<path class="st0" d="M62.3,17.7l-1.4,0.1l1.1,1l-0.3,1.4c0.3-0.1,1.1-0.7,1.2-0.7c0.2,0,0.9,0.6,1.3,0.7l-0.3-1.4l1-0.9v-0.1h-1.3
			L63,16.4L62.3,17.7L62.3,17.7z"/>
		<path class="st0" d="M69.1,17.1l-1.4,0.1l1.1,1l-0.3,1.2c0.3-0.1,1.1-0.7,1.2-0.7c0.2,0,0.9,0.6,1.3,0.7L70.6,18l1-0.9V17h-1.3
			l-0.6-1.4L69.1,17.1L69.1,17.1z"/>
		<path class="st0" d="M74.3,12.8l-1.4,0.1l1.1,1l-0.3,1.4c0.3-0.1,1.1-0.7,1.2-0.7c0.2,0,0.9,0.6,1.3,0.7l-0.3-1.4l1-0.9v-0.1h-1.3
			L75,11.5L74.3,12.8L74.3,12.8z"/>
	</g>
</g>
<g>
	<g>
		<path class="st0" d="M104.9,32.5h-1c0.1-1.3,0.2-2.4,0.2-3c0-1-0.2-1.7-0.8-2.3c-0.5-0.5-1.2-0.9-2-0.9c-1.3,0-2.5,0.5-3.4,1.5
			c-1,1-1.5,2.1-1.5,3.3c0,0.6,0.1,1.3,0.4,1.8s0.9,1.3,1.7,2.3c1.6,1.7,2.8,3.1,3.3,4.1s0.8,1.9,0.8,2.9c0,1.4-0.4,2.7-1.2,4
			c-0.8,1.3-1.9,2.4-3.4,3.1s-3.1,1.2-4.8,1.2c-1.7,0-3.1-0.4-4.3-1.4s-1.7-1.9-1.7-2.9c0-0.5,0.1-1,0.4-1.4
			c0.3-0.3,0.6-0.5,1.1-0.5s0.8,0.2,1,0.5c0.2,0.2,0.3,0.6,0.5,1.4c0.2,0.9,0.4,1.5,0.6,1.8c0.3,0.4,0.6,0.6,1.2,1
			c0.5,0.3,1,0.3,1.6,0.3c1.7,0,3.2-0.6,4.4-1.8c1.3-1.2,1.9-2.6,1.9-4c0-0.5-0.1-1-0.2-1.5s-0.4-1.1-0.9-1.7
			c-0.3-0.4-1-1.2-1.9-2.3c-1-1.1-1.6-1.8-1.9-2.1c-0.3-0.5-0.6-1.2-0.9-1.7S94,33,94,32.5c0-1.2,0.3-2.3,1.1-3.4s1.6-2,2.8-2.8
			c1.2-0.6,2.5-1.1,4-1.1c0.8,0,1.6,0.1,2.7,0.3c0.6,0.1,1.2,0.2,1.6,0.3c-0.2,0.9-0.4,1.6-0.6,2.3C105.3,29,105.1,30.4,104.9,32.5z
			"/>
		<path class="st0" d="M118.5,31.6l1.2-0.2l-1.3,4.7c-0.5,1.9-1.1,4.1-1.5,6.5c-0.2,1.3-0.4,2.3-0.4,2.6s0.1,0.5,0.4,0.5
			c0.2,0,0.5-0.1,0.9-0.4c0.8-0.4,1.4-1.1,2.1-1.7l0.5,0.8c-1.4,1.3-2.3,2-2.6,2.4c-0.8,0.5-1.5,1-2.1,1.2c-0.4,0.2-0.9,0.2-1.3,0.2
			c-0.3,0-0.5-0.1-0.6-0.2s-0.2-0.3-0.2-0.6c0-0.2,0-0.4,0.1-0.8l0.8-2.6c-1,1.3-2.3,2.4-3.6,3.3c-0.9,0.5-1.6,0.9-2.4,0.9
			c-0.6,0-1.2-0.2-1.6-0.8c-0.5-0.6-0.8-1.6-0.8-2.7c0-1.3,0.3-2.8,1-4.4c0.6-1.6,1.6-3.1,2.7-4.4c1.1-1.3,2.4-2.3,3.5-2.9
			c1-0.4,2.1-0.8,3.6-0.8c0.4,0,0.8,0,1.2,0.1L118.5,31.6z M116.3,34.5c-0.6-0.1-1.2-0.2-1.6-0.2c-1.1,0-2,0.3-2.8,1
			c-0.8,0.6-1.5,1.7-2.3,3.3c-0.6,1.6-1.1,3.2-1.1,4.8c0,0.9,0.1,1.5,0.4,1.8s0.6,0.5,1.1,0.5c0.9,0,1.7-0.4,2.6-1.4s1.6-2.3,2-4.1
			L116.3,34.5z"/>
		<path class="st0" d="M122.2,36.4l-0.6-0.6c1.5-1.5,2.7-2.6,3.6-3c0.9-0.5,1.7-0.8,2.4-0.8c0.2,0,0.4,0.1,0.5,0.2
			c0.1,0.1,0.2,0.2,0.2,0.4c0,0.1,0,0.3-0.1,0.6l-0.8,3.8c1.2-1.4,2.7-2.8,4.5-4c1-0.6,1.7-1,2.4-1c0.4,0,0.9,0.1,1.1,0.4
			s0.4,0.8,0.4,1.4c0,0.4,0,0.9-0.1,1.3c-0.2,0.9-0.6,2.6-1.5,5.4c-0.8,2.6-1.2,4.3-1.2,5c0,0.2,0,0.4,0.1,0.5s0.2,0.2,0.3,0.2
			c0.3,0,0.9-0.3,1.6-1.1c0.5-0.5,1.1-1,1.6-1.4l0.4,0.6c-1.1,1.3-2.3,2.3-3.4,3.1c-0.8,0.5-1.4,0.8-1.8,0.8c-0.4,0-0.8-0.2-1.1-0.5
			s-0.3-0.9-0.3-1.7c0-1.1,0.6-3.9,1.9-8.4c0.4-1.6,0.6-2.5,0.6-2.8c0-0.4-0.2-0.5-0.6-0.5c-0.4,0-1.1,0.2-1.8,0.8
			c-1.1,0.8-2,1.7-2.8,2.8c-0.4,0.6-0.9,1.7-1.2,3.2l-1.4,6.5h-2.7c0.5-1.9,1-3.6,1.3-5.4l1.6-7.2c0.1-0.3,0.1-0.5,0.1-0.6
			c0-0.3-0.1-0.5-0.3-0.5s-0.4,0.1-0.9,0.4C123.5,35,122.8,35.6,122.2,36.4z"/>
		<path class="st0" d="M161.1,25.6c-0.9,2-1.8,4.8-2.8,8.5l-2.7,9.8c-0.9,3.1-2,5.5-3.5,6.9c-1.5,1.5-3.1,2.1-4.9,2.1
			c-1.2,0-2.1-0.3-2.9-0.9s-1.1-1.2-1.1-1.8c0-0.3,0.1-0.5,0.3-0.9s0.4-0.3,0.8-0.3c0.4,0,0.9,0.2,1.3,0.8c0.6,0.6,1.1,1.1,1.5,1.3
			c0.5,0.2,1,0.4,1.4,0.4s0.8-0.1,1.1-0.3c0.5-0.3,1-0.9,1.3-1.5c0.4-0.6,1.2-3,2.4-7c1-3.3,1.9-6.7,2.9-10.2l1.5-5.7h-0.9
			c-1.9,0-3.4,0.4-4.7,1.4c-1.2,1-1.8,1.9-1.8,3c0,0.4,0.1,0.9,0.4,1.3c0.3,0.4,0.4,0.9,0.4,1.1c0,0.3-0.1,0.6-0.3,0.9
			s-0.5,0.3-0.9,0.3s-0.8-0.2-1.1-0.5s-0.4-1-0.4-1.7c0-1.4,0.4-2.7,1.4-3.9c1-1.2,2.3-2,3.8-2.6c1.1-0.3,2.7-0.5,4.8-0.5
			C159,25.6,159.7,25.6,161.1,25.6z"/>
		<path class="st0" d="M169.7,32c1.2,0,2.1,0.5,2.9,1.5s1.2,2.4,1.2,4.1c0,2.8-1,5.3-2.8,7.5c-1.8,2.3-3.8,3.3-5.9,3.3
			c-1.3,0-2.3-0.4-3.1-1.3c-0.8-0.9-1.2-2-1.2-3.5c0-2.6,0.8-5,2.1-7.3C164.8,33.4,167,32,169.7,32z M168.2,33.4
			c-1,0-1.9,0.8-2.9,2.3s-1.4,3.6-1.4,6.3c0,1.6,0.3,2.9,0.9,3.9c0.4,0.6,1,1.1,1.7,1.1c1,0,1.9-0.6,2.7-1.9
			c1.1-1.7,1.6-3.8,1.6-6.3c0-1.8-0.2-3.2-0.8-4C169.5,33.8,169,33.4,168.2,33.4z"/>
		<path class="st0" d="M183.3,32c1.1,0,1.8,0.2,2.5,0.6c0.5,0.4,0.9,1,0.9,1.5c0,0.3-0.1,0.6-0.3,0.9c-0.2,0.2-0.5,0.4-0.9,0.4
			c-0.2,0-0.4,0-0.5-0.1s-0.4-0.3-0.8-0.8c-0.5-0.9-1.2-1.2-1.7-1.2s-1,0.2-1.3,0.6c-0.3,0.4-0.5,0.9-0.5,1.5c0,0.5,0.1,1,0.3,1.5
			c0.2,0.4,0.9,1.3,1.8,2.4c1.3,1.5,1.9,2.9,1.9,4.2S184.1,46,183,47s-2.5,1.5-4.1,1.5c-1.4,0-2.5-0.3-3.1-0.9s-1.1-1.4-1.1-2.3
			c0-0.4,0.1-0.8,0.4-1.1c0.2-0.3,0.5-0.4,1-0.4c0.3,0,0.6,0.1,0.9,0.3c0.2,0.2,0.3,0.5,0.3,0.9c0,0.1,0,0.3,0,0.5s0,0.3,0,0.4
			c0,0.4,0.2,0.8,0.5,1.1s0.8,0.4,1.3,0.4c0.6,0,1.2-0.1,1.7-0.3s0.9-0.5,1.2-1.1c0.3-0.4,0.4-1,0.4-1.4s-0.1-0.9-0.4-1.4
			c-0.2-0.4-0.9-1.2-1.7-2.3c-1.2-1.5-1.8-2.8-1.8-4.2c0-1.2,0.4-2.3,1.4-3.2C180.9,32.7,181.9,32,183.3,32z"/>
		<path class="st0" d="M196.3,43l0.5,0.9c-2.9,2.9-5.4,4.4-7.4,4.4c-0.9,0-1.5-0.3-1.9-0.9c-0.4-0.6-0.6-1.6-0.6-2.9
			c0-2.7,0.8-5.4,2.4-8c1.7-3,3.8-4.5,6.2-4.5c0.9,0,1.5,0.2,1.9,0.6c0.4,0.4,0.6,1.1,0.6,1.8c0,0.9-0.2,1.6-0.8,2.4
			c-0.5,0.8-1.5,1.6-2.9,2.5c-0.6,0.4-2.1,1.2-4.4,2.3c-0.1,0.6-0.1,1.3-0.1,1.9c0,0.9,0.1,1.5,0.4,1.8c0.2,0.3,0.6,0.5,1.2,0.5
			c0.5,0,1-0.1,1.6-0.4C193.8,45.1,194.8,44.2,196.3,43z M190.2,40.3c1.9-0.9,3.3-1.8,4.3-2.9c0.6-0.8,1-1.4,1-2.1
			c0-0.5-0.1-1-0.4-1.3s-0.6-0.4-1.1-0.4c-0.4,0-0.9,0.2-1.3,0.5c-0.5,0.4-1.1,1.2-1.4,2.1C190.8,37.6,190.4,38.9,190.2,40.3z
			 M196.7,24.2h3.3l-6,5.5h-1.1L196.7,24.2z"/>
	</g>
</g>
<g>
	<g>
		<path class="st0" d="M90.3,58.2v2c0,0.5,0,0.8,0,1.1c0,0.1,0,0.1,0.1,0.2l0.6,0.2v0.2c-0.4,0-0.8,0-1.2,0s-0.8,0-1.3,0v-0.2
			l0.6-0.2c0.1,0,0.1-0.1,0.1-0.1c0-0.2,0-0.6,0-1.1v-4.4c0-0.4,0-0.7,0-0.9c0-0.1,0-0.1-0.1-0.2l-0.6-0.2v-0.2c0.5,0,0.8,0,1.3,0
			c0.4,0,0.8,0,1.2,0v0.2l-0.6,0.2c-0.1,0-0.1,0.1-0.1,0.1c0,0.2,0,0.6,0,0.9v1.9h3.6v-1.8c0-0.4,0-0.6,0-0.9c0-0.1,0-0.1-0.1-0.1
			l-0.6-0.2v-0.2c0.4,0,0.8,0,1.2,0c0.4,0,0.8,0,1.2,0v0.2L95,54.9c-0.1,0-0.1,0.1-0.1,0.2c0,0.2,0,0.5,0,0.9v4.4c0,0.5,0,0.8,0,1.1
			c0,0.1,0,0.1,0.1,0.1l0.6,0.2V62c-0.5,0-0.8,0-1.3,0c-0.4,0-0.8,0-1.2,0v-0.2l0.6-0.2c0.1,0,0.1-0.1,0.1-0.2c0-0.2,0-0.6,0-1.1v-2
			h-3.5C90.3,58.3,90.3,58.2,90.3,58.2z"/>
		<path class="st0" d="M100.5,61.5c-0.2,0.2-0.6,0.4-0.8,0.4C99.3,62,99.1,62,98.9,62c-0.7,0-1.3-0.2-1.8-0.7s-0.7-1.1-0.7-1.9
			c0-0.8,0.2-1.4,0.6-1.9c0.5-0.5,0.9-0.7,1.6-0.7c0.6,0,1.1,0.2,1.4,0.6c0.4,0.4,0.5,0.9,0.5,1.5c0,0.1,0,0.2,0,0.4h-3.2
			c0,0.7,0.1,1.3,0.5,1.6c0.4,0.4,0.8,0.5,1.6,0.5c0.4,0,0.7,0,1.1-0.1L100.5,61.5z M99.4,58.8L99.4,58.8c0-0.6-0.1-0.9-0.2-1.2
			c-0.1-0.2-0.4-0.4-0.7-0.4c-0.4,0-0.7,0.1-0.9,0.5c-0.2,0.4-0.4,0.7-0.4,1.1C97.2,58.8,99.4,58.8,99.4,58.8z"/>
		<path class="st0" d="M101,57.2c0.6-0.1,1.1-0.2,1.6-0.4l0,0v0.6c0.6-0.5,1.2-0.7,1.9-0.7l0,0c-0.1,0.5-0.2,1.1-0.2,1.6H104
			c-0.1-0.4-0.2-0.6-0.2-0.7c0-0.1-0.2-0.2-0.5-0.2c-0.2,0-0.4,0.1-0.7,0.2V60c0,0.6,0,0.9,0,1.2c0,0.1,0,0.1,0.1,0.2l0.7,0.2v0.2
			c-0.5,0-0.9,0-1.3,0s-0.7,0-1.2,0v-0.2l0.6-0.2c0.1,0,0.1-0.1,0.1-0.1c0-0.1,0-0.4,0-0.7v-1.8c0-0.6,0-1.1,0-1.3L101,57.2
			L101,57.2z"/>
		<path class="st0" d="M109.6,57.8c0,0.1,0.1,0.4,0.1,0.6v1.9c0,0.5,0,0.7,0,1.1c0,0.1,0,0.1,0.1,0.2l0.5,0.1v0.2
			c-0.4,0-0.8,0-1.1,0s-0.7,0-1.1,0v-0.2l0.5-0.1c0.1,0,0.1-0.1,0.1-0.1s0-0.1,0-0.4v-2.4c0-0.5-0.1-0.7-0.2-0.9s-0.5-0.2-0.8-0.2
			c-0.4,0-0.7,0.1-0.9,0.4v2.4c0,0.5,0,0.8,0,1.2c0,0.1,0,0.1,0.1,0.2l0.6,0.1v0.2c-0.5,0-0.8,0-1.2,0s-0.7,0-1.2,0v-0.2l0.6-0.2
			c0.1,0,0.1-0.1,0.1-0.1c0-0.2,0-0.4,0-0.7V59c0-0.5,0-0.9,0-1.3l-0.7-0.2v-0.2c0.6-0.1,1.1-0.2,1.6-0.4l0,0v0.6
			c0.6-0.5,1.1-0.7,1.5-0.7c0.6,0,1.1,0.2,1.3,0.7c0.6-0.5,1.1-0.7,1.8-0.7c0.5,0,0.8,0.1,1.1,0.5c0.2,0.2,0.4,0.7,0.4,1.2v1.9
			c0,0.5,0,0.8,0,0.9c0,0.1,0,0.1,0.1,0.2l0.6,0.2v0.2c-0.5,0-0.8,0-1.2,0s-0.7,0-1.1,0v-0.2l0.5-0.1c0.1,0,0.1-0.1,0.1-0.1
			s0-0.1,0-0.4v-2.4c0-0.5-0.1-0.7-0.2-0.9s-0.5-0.2-0.8-0.2C110.3,57.5,109.9,57.6,109.6,57.8z"/>
		<path class="st0" d="M114.1,57.2c0.7-0.4,1.2-0.5,1.8-0.5c0.5,0,0.9,0.1,1.2,0.5c0.4,0.2,0.5,0.7,0.5,1.2v2.2c0,0.2,0,0.4,0,0.5
			s0,0.2,0.1,0.2s0.1,0.1,0.2,0.1s0.2,0,0.4,0v0.2c-0.1,0.1-0.4,0.1-0.5,0.2c-0.2,0.1-0.4,0.1-0.5,0.1c-0.4,0-0.6-0.2-0.7-0.6
			c-0.5,0.4-0.9,0.6-1.3,0.6c-0.5,0-0.8-0.1-1.2-0.4c-0.2-0.2-0.5-0.6-0.5-1.1c0-0.6,0.2-0.9,0.7-1.2c0.5-0.2,1.2-0.4,2.1-0.4v-0.5
			c0-0.4-0.1-0.7-0.2-0.9c-0.2-0.2-0.5-0.2-0.9-0.2s-0.7,0.1-1.2,0.2V57.2z M116.6,59.5c-0.7,0-1.2,0.1-1.4,0.2s-0.4,0.4-0.4,0.8
			c0,0.4,0.1,0.6,0.2,0.7c0.1,0.1,0.4,0.2,0.7,0.2c0.4,0,0.6-0.1,0.8-0.2L116.6,59.5z"/>
		<path class="st0" d="M118.7,57.2c0.6-0.1,1.1-0.2,1.6-0.4l0,0v0.6c0.6-0.5,1.2-0.7,1.6-0.7c0.5,0,0.8,0.1,1.2,0.5s0.4,0.7,0.4,1.2
			v1.9c0,0.5,0,0.8,0,0.9c0,0.1,0,0.1,0.1,0.2l0.6,0.2v0.2c-0.5,0-0.8,0-1.2,0s-0.7,0-1.1,0v-0.2l0.5-0.1c0.1,0,0.1-0.1,0.1-0.1
			s0-0.1,0-0.4v-2.4c0-0.5-0.1-0.7-0.4-0.9c-0.2-0.2-0.5-0.2-0.8-0.2c-0.4,0-0.7,0.1-1.1,0.4v2.4c0,0.5,0,0.8,0,1.2
			c0,0.1,0,0.1,0.1,0.2l0.5,0.1V62c-0.5,0-0.8,0-1.2,0s-0.7,0-1.2,0v-0.2l0.6-0.2c0.1,0,0.1-0.1,0.1-0.1c0-0.2,0-0.5,0-0.7v-1.9
			c0-0.5,0-0.9,0-1.3l-0.7-0.2L118.7,57.2z"/>
		<path class="st0" d="M129.4,59.4c0,0.8-0.2,1.4-0.7,2c-0.5,0.5-1.1,0.7-1.8,0.7c-0.7,0-1.3-0.2-1.6-0.7c-0.4-0.5-0.6-1.1-0.6-1.9
			c0-0.8,0.2-1.4,0.7-1.9s1.1-0.7,1.8-0.7c0.7,0,1.3,0.2,1.6,0.7C129.2,57.9,129.4,58.5,129.4,59.4z M125.7,59.4
			c0,0.7,0.1,1.2,0.4,1.6c0.2,0.5,0.6,0.6,1.1,0.6s0.7-0.2,0.9-0.6c0.2-0.4,0.4-0.9,0.4-1.6s-0.1-1.2-0.4-1.6
			c-0.2-0.4-0.6-0.6-1.1-0.6s-0.7,0.1-0.9,0.5C125.8,58.2,125.7,58.6,125.7,59.4z"/>
		<path class="st0" d="M132.5,57.3c-0.2,0-0.4-0.1-0.6-0.1c-0.4,0-0.6,0.1-0.7,0.2c-0.2,0.1-0.2,0.4-0.2,0.6s0.1,0.4,0.2,0.5
			c0.1,0.1,0.4,0.2,0.7,0.4l0.4,0.1c0.5,0.1,0.8,0.4,1.1,0.6c0.2,0.2,0.4,0.5,0.4,0.8c0,0.5-0.2,0.8-0.6,1.2
			c-0.4,0.2-0.8,0.5-1.4,0.5c-0.5,0-1.1-0.1-1.5-0.4c0.1-0.5,0.2-0.9,0.2-1.3h0.2l0.4,1.2c0.2,0.1,0.5,0.1,0.7,0.1
			c0.4,0,0.6-0.1,0.7-0.2c0.2-0.1,0.2-0.4,0.2-0.6s-0.1-0.4-0.2-0.6c-0.1-0.1-0.4-0.2-0.6-0.4l-0.5-0.2c-0.5-0.1-0.8-0.4-0.9-0.6
			s-0.2-0.5-0.2-0.8c0-0.5,0.1-0.8,0.5-1.1c0.4-0.2,0.8-0.4,1.3-0.4s0.9,0.1,1.4,0.2c-0.1,0.4-0.2,0.8-0.2,1.3h-0.2L132.5,57.3z"/>
		<path class="st0" d="M142.9,54.4c0.4,0,0.6,0,0.8,0s0.6,0,1.1,0v0.2l-0.6,0.2c-0.1,0-0.1,0.1-0.1,0.2c0,0.2,0,0.5,0,0.9v4.4
			c0,0.5,0,0.8,0,1.1c0,0.1,0,0.1,0.1,0.1l0.6,0.2v0.2c-0.5,0-0.8,0-1.3,0c-0.4,0-0.8,0-1.2,0v-0.2l0.6-0.2c0.1,0,0.1-0.1,0.1-0.2
			c0-0.2,0-0.6,0-1.1v-4.6l-2.5,6.2h-0.4l-2.5-6.2v4.6c0,0.5,0,0.8,0,1.1c0,0.1,0,0.1,0.1,0.2l0.6,0.2v0.2c-0.4,0-0.7,0-1.1,0
			c-0.2,0-0.6,0-1.1,0v-0.2l0.6-0.2c0.1,0,0.1-0.1,0.1-0.1c0-0.2,0-0.6,0-1.1v-4.4c0-0.4,0-0.7,0-0.9c0-0.1,0-0.1-0.1-0.2l-0.6-0.2
			v-0.2c0.5,0,0.8,0,1.1,0c0.2,0,0.6,0,0.9,0l2.4,5.9L142.9,54.4z"/>
		<path class="st0" d="M145.7,57.2c0.7-0.4,1.2-0.5,1.8-0.5c0.5,0,0.9,0.1,1.2,0.5c0.4,0.2,0.5,0.7,0.5,1.2v2.2c0,0.2,0,0.4,0,0.5
			s0,0.2,0.1,0.2s0.1,0.1,0.2,0.1c0.1,0,0.2,0,0.4,0v0.2c-0.1,0.1-0.4,0.1-0.5,0.2c-0.2,0.1-0.4,0.1-0.5,0.1c-0.4,0-0.6-0.2-0.7-0.6
			c-0.5,0.4-0.9,0.6-1.3,0.6c-0.5,0-0.8-0.1-1.2-0.4c-0.2-0.2-0.5-0.6-0.5-1.1c0-0.6,0.2-0.9,0.7-1.2c0.5-0.2,1.2-0.4,2.1-0.4v-0.5
			c0-0.4-0.1-0.7-0.2-0.9c-0.2-0.2-0.5-0.2-0.9-0.2s-0.7,0.1-1.2,0.2L145.7,57.2z M148.2,59.5c-0.7,0-1.2,0.1-1.4,0.2
			c-0.2,0.1-0.4,0.4-0.4,0.8c0,0.4,0.1,0.6,0.2,0.7c0.1,0.1,0.4,0.2,0.7,0.2s0.6-0.1,0.8-0.2L148.2,59.5L148.2,59.5z"/>
		<path class="st0" d="M150.3,57.2c0.6-0.1,1.1-0.2,1.6-0.4l0,0v0.6c0.6-0.5,1.2-0.7,1.9-0.7l0,0c-0.1,0.5-0.2,1.1-0.2,1.6h-0.2
			c-0.1-0.4-0.2-0.6-0.2-0.7c0-0.1-0.2-0.2-0.5-0.2c-0.2,0-0.4,0.1-0.7,0.2V60c0,0.6,0,0.9,0,1.2c0,0.1,0,0.1,0.1,0.2l0.7,0.2v0.2
			c-0.5,0-0.9,0-1.3,0s-0.7,0-1.2,0v-0.2l0.6-0.2c0.1,0,0.1-0.1,0.1-0.1c0-0.1,0-0.4,0-0.7v-1.8c0-0.6,0-1.1,0-1.3L150.3,57.2
			L150.3,57.2z"/>
		<path class="st0" d="M154.3,57.2c0.6-0.1,1.2-0.2,1.6-0.4l0,0c0,0.5,0,0.9,0,1.5v2c0,0.5,0,0.7,0,0.9c0,0.1,0,0.1,0.1,0.2l0.6,0.2
			v0.2c-0.5,0-0.8,0-1.2,0s-0.7,0-1.2,0v-0.2l0.6-0.2c0.1,0,0.1-0.1,0.1-0.1c0-0.1,0-0.4,0-0.7v-1.9c0-0.5,0-0.9,0-1.3L154.3,57.2
			L154.3,57.2L154.3,57.2z M155.9,55c0,0.2,0,0.4-0.1,0.5s-0.2,0.2-0.5,0.2c-0.1,0-0.4,0-0.4-0.1s-0.1-0.2-0.1-0.5s0-0.4,0.1-0.5
			s0.2-0.1,0.5-0.1c0.1,0,0.4,0,0.4,0.1C155.9,54.6,155.9,54.8,155.9,55z"/>
		<path class="st0" d="M159.7,57.3c-0.2,0-0.4-0.1-0.6-0.1c-0.4,0-0.6,0.1-0.7,0.2c-0.2,0.1-0.2,0.4-0.2,0.6s0.1,0.4,0.2,0.5
			c0.1,0.1,0.4,0.2,0.7,0.4l0.4,0.1c0.5,0.1,0.8,0.4,1.1,0.6c0.2,0.2,0.4,0.5,0.4,0.8c0,0.5-0.2,0.8-0.6,1.2
			c-0.4,0.2-0.8,0.5-1.4,0.5c-0.5,0-1.1-0.1-1.5-0.4c0.1-0.5,0.2-0.9,0.2-1.3h0.2l0.4,1.2c0.2,0.1,0.5,0.1,0.7,0.1
			c0.4,0,0.6-0.1,0.7-0.2c0.2-0.1,0.2-0.4,0.2-0.6s-0.1-0.4-0.2-0.6c-0.1-0.1-0.4-0.2-0.6-0.4l-0.5-0.2c-0.5-0.1-0.8-0.4-0.9-0.6
			s-0.2-0.5-0.2-0.8c0-0.5,0.1-0.8,0.5-1.1s0.8-0.4,1.3-0.4s0.9,0.1,1.4,0.2c-0.1,0.4-0.2,0.8-0.2,1.3H160L159.7,57.3z"/>
		<path class="st0" d="M162.7,57.6c0,1.2,0,2.1,0,2.9c0,0.4,0,0.6,0.1,0.7c0.1,0.1,0.4,0.2,0.6,0.2s0.6,0,0.9-0.1v0.2
			c-0.6,0.4-1.1,0.5-1.5,0.5s-0.7-0.1-0.8-0.4c-0.2-0.2-0.2-0.5-0.2-0.9c0-0.7,0-1.8,0-3.3l-0.7-0.2V57l0.8-0.1l0.4-1.3
			c0.2,0,0.4-0.1,0.5-0.1l0,0c0,0.5,0,0.8,0,1.2v0.2h1.5v0.5h-1.5v0.2H162.7z"/>
		<path class="st0" d="M165.3,57.2c0.7-0.4,1.2-0.5,1.8-0.5c0.5,0,0.9,0.1,1.2,0.5c0.4,0.2,0.5,0.7,0.5,1.2v2.2c0,0.2,0,0.4,0,0.5
			s0,0.2,0.1,0.2s0.1,0.1,0.2,0.1c0.1,0,0.2,0,0.4,0v0.2c-0.1,0.1-0.4,0.1-0.5,0.2c-0.2,0.1-0.4,0.1-0.5,0.1c-0.4,0-0.6-0.2-0.7-0.6
			c-0.5,0.4-0.9,0.6-1.3,0.6c-0.5,0-0.8-0.1-1.2-0.4c-0.2-0.2-0.5-0.6-0.5-1.1c0-0.6,0.2-0.9,0.7-1.2c0.5-0.2,1.2-0.4,2.1-0.4v-0.5
			c0-0.4-0.1-0.7-0.2-0.9c-0.2-0.2-0.5-0.2-0.9-0.2s-0.7,0.1-1.2,0.2L165.3,57.2z M167.7,59.5c-0.7,0-1.2,0.1-1.4,0.2
			c-0.2,0.1-0.4,0.4-0.4,0.8c0,0.4,0.1,0.6,0.2,0.7c0.1,0.1,0.4,0.2,0.7,0.2s0.6-0.1,0.8-0.2L167.7,59.5L167.7,59.5z"/>
		<path class="st0" d="M172.4,57.3c-0.2,0-0.4-0.1-0.6-0.1c-0.4,0-0.6,0.1-0.7,0.2c-0.2,0.1-0.2,0.4-0.2,0.6s0.1,0.4,0.2,0.5
			c0.1,0.1,0.4,0.2,0.7,0.4l0.4,0.1c0.5,0.1,0.8,0.4,1.1,0.6c0.2,0.2,0.4,0.5,0.4,0.8c0,0.5-0.2,0.8-0.6,1.2
			c-0.4,0.2-0.8,0.5-1.4,0.5c-0.5,0-1.1-0.1-1.5-0.4c0.1-0.5,0.2-0.9,0.2-1.3h0.2l0.4,1.2c0.2,0.1,0.5,0.1,0.7,0.1
			c0.4,0,0.6-0.1,0.7-0.2c0.2-0.1,0.2-0.4,0.2-0.6s-0.1-0.4-0.2-0.6c-0.1-0.1-0.4-0.2-0.6-0.4l-0.5-0.2c-0.5-0.1-0.8-0.4-0.9-0.6
			c-0.1-0.2-0.2-0.5-0.2-0.8c0-0.5,0.1-0.8,0.5-1.1c0.4-0.2,0.8-0.4,1.3-0.4s0.9,0.1,1.4,0.2c-0.1,0.4-0.2,0.8-0.2,1.3H173
			L172.4,57.3z"/>
		<path class="st0" d="M181.7,56.3h-0.2l-0.4-1.4c-0.5-0.1-0.8-0.1-1.2-0.1c-0.8,0-1.4,0.4-1.9,0.9c-0.5,0.6-0.7,1.4-0.7,2.4
			c0,1.1,0.2,1.9,0.8,2.5s1.3,0.9,2.2,0.9c0.6,0,1.1-0.1,1.6-0.4v0.2c-0.7,0.5-1.4,0.7-2.2,0.7c-1.1,0-2-0.4-2.6-1.1
			c-0.7-0.7-1.1-1.6-1.1-2.7c0-1.2,0.4-2.2,1.1-2.9c0.7-0.7,1.6-1.1,2.8-1.1c0.6,0,1.2,0.1,1.8,0.2l0,0L181.7,56.3z"/>
		<path class="st0" d="M183.1,57.2c0.7-0.4,1.2-0.5,1.8-0.5c0.5,0,0.9,0.1,1.2,0.5c0.4,0.2,0.5,0.7,0.5,1.2v2.2c0,0.2,0,0.4,0,0.5
			s0,0.2,0.1,0.2s0.1,0.1,0.2,0.1c0.1,0,0.2,0,0.4,0v0.2c-0.1,0.1-0.4,0.1-0.5,0.2c-0.2,0.1-0.4,0.1-0.5,0.1c-0.4,0-0.6-0.2-0.7-0.6
			c-0.5,0.4-0.9,0.6-1.3,0.6c-0.5,0-0.8-0.1-1.2-0.4c-0.2-0.2-0.5-0.6-0.5-1.1c0-0.6,0.2-0.9,0.7-1.2c0.5-0.2,1.2-0.4,2.1-0.4v-0.5
			c0-0.4-0.1-0.7-0.2-0.9c-0.2-0.2-0.5-0.2-0.9-0.2s-0.7,0.1-1.2,0.2L183.1,57.2z M185.6,59.5c-0.7,0-1.2,0.1-1.4,0.2
			c-0.2,0.1-0.4,0.4-0.4,0.8c0,0.4,0.1,0.6,0.2,0.7c0.1,0.1,0.4,0.2,0.7,0.2s0.6-0.1,0.8-0.2L185.6,59.5L185.6,59.5z"/>
		<path class="st0" d="M187.8,54.4L187.8,54.4c0.6-0.2,1.2-0.3,1.6-0.5l0,0c0,0.6,0,1.4,0,2.4v3.4c0,0.6,0,1.2,0,1.5
			c0,0.1,0,0.1,0.1,0.2l0.6,0.1v0.2c-0.5,0-0.8,0-1.2,0s-0.7,0-1.2,0v-0.2l0.6-0.1c0.1,0,0.1-0.1,0.1-0.1c0-0.4,0-0.8,0-1.3v-2.2
			c0-1.3,0-2.4,0-3.2L187.8,54.4z"/>
		<path class="st0" d="M190.6,54.4L190.6,54.4c0.6-0.2,1.2-0.3,1.6-0.5l0,0c0,0.6,0,1.4,0,2.4v3.4c0,0.6,0,1.2,0,1.5
			c0,0.1,0,0.1,0.1,0.2l0.6,0.1v0.2c-0.5,0-0.8,0-1.2,0s-0.7,0-1.2,0v-0.2l0.6-0.1c0.1,0,0.1-0.1,0.1-0.1c0-0.4,0-0.8,0-1.3v-2.2
			c0-1.3,0-2.4,0-3.2L190.6,54.4z"/>
		<path class="st0" d="M193.8,57.2c0.7-0.4,1.2-0.5,1.8-0.5c0.5,0,0.9,0.1,1.2,0.5c0.4,0.2,0.5,0.7,0.5,1.2v2.2c0,0.2,0,0.4,0,0.5
			s0,0.2,0.1,0.2s0.1,0.1,0.2,0.1c0.1,0,0.2,0,0.4,0v0.2c-0.1,0.1-0.4,0.1-0.5,0.2c-0.2,0.1-0.4,0.1-0.5,0.1c-0.4,0-0.6-0.2-0.7-0.6
			c-0.5,0.4-0.9,0.6-1.3,0.6c-0.5,0-0.8-0.1-1.2-0.4c-0.2-0.2-0.5-0.6-0.5-1.1c0-0.6,0.2-0.9,0.7-1.2c0.5-0.2,1.2-0.4,2.1-0.4v-0.5
			c0-0.4-0.1-0.7-0.2-0.9c-0.2-0.2-0.5-0.2-0.9-0.2s-0.7,0.1-1.2,0.2L193.8,57.2z M196.3,59.5c-0.7,0-1.2,0.1-1.4,0.2
			c-0.2,0.1-0.4,0.4-0.4,0.8c0,0.4,0.1,0.6,0.2,0.7c0.1,0.1,0.4,0.2,0.7,0.2c0.4,0,0.6-0.1,0.8-0.2L196.3,59.5L196.3,59.5z"/>
		<path class="st0" d="M203,59.4c0,0.8-0.2,1.4-0.7,2c-0.5,0.5-1.1,0.7-1.8,0.7s-1.3-0.2-1.6-0.7c-0.4-0.5-0.6-1.1-0.6-1.9
			c0-0.8,0.2-1.4,0.7-1.9s1.1-0.7,1.8-0.7s1.3,0.2,1.6,0.7C202.8,57.9,203,58.5,203,59.4z M199.2,59.4c0,0.7,0.1,1.2,0.4,1.6
			c0.2,0.5,0.6,0.6,1.1,0.6s0.7-0.2,0.9-0.6c0.2-0.4,0.4-0.9,0.4-1.6s-0.1-1.2-0.4-1.6c-0.2-0.4-0.6-0.6-1.1-0.6s-0.7,0.1-0.9,0.5
			C199.3,58.2,199.2,58.6,199.2,59.4z"/>
	</g>
</g>
</svg>
