<svg id="Capa_1" data-name="Capa 1" xmlns="http://www.w3.org/2000/svg" viewBox="0 0 56.39 56.39"><defs><style>.cls-1{fill:#fff;stroke:#fff;stroke-miterlimit:10;}</style></defs><path class="cls-1" d="M28.19,2.19A26,26,0,0,0,6.13,42c-1,3.59-2.88,10.4-2.9,10.47a1,1,0,0,0,.27,1,1,1,0,0,0,1,.24l10.3-3.17A26,26,0,1,0,28.19,2.19Zm0,50a23.94,23.94,0,0,1-12.73-3.65,1,1,0,0,0-.53-.15.93.93,0,0,0-.29,0l-9,2.77c.66-2.42,1.85-6.73,2.54-9.13a1.05,1.05,0,0,0-.12-.83A24,24,0,1,1,28.19,52.19Z"/><path class="cls-1" d="M45.18,34.32c-1.85-1-3.42-2-4.57-2.8a22.18,22.18,0,0,0-2-1.22,2.25,2.25,0,0,0-2.65.19.93.93,0,0,0-.13.15c-1.34,2-3.1,4-3.62,4.06a24.56,24.56,0,0,1-6.15-4c-2.82-2.36-4.6-4.61-4.86-6.15,1.81-1.87,2.46-3,2.46-4.38s-3.21-7.12-3.79-7.7S18,11.81,16,12.21a1,1,0,0,0-.51.28c-.25.24-5.93,6-3.23,13.06,3,7.71,10.58,16.68,20.29,18.13a20.28,20.28,0,0,0,3.1.25c5.71,0,9.08-2.87,10-8.57A1,1,0,0,0,45.18,34.32ZM32.84,41.71C22.58,40.17,16.11,30,14.13,24.84s1.66-9.69,2.57-10.72A7.43,7.43,0,0,1,18.55,14a35.82,35.82,0,0,1,3.14,6.2c0,.53-.17,1.26-2.2,3.3a1,1,0,0,0-.3.7c0,5.24,11,12.5,13,12.5,1.71,0,3.92-2.85,5.19-4.72a1.13,1.13,0,0,1,.37.12c.36.18,1,.59,1.77,1.1,1,.68,2.43,1.59,4.06,2.52C42.84,39.28,40.76,42.9,32.84,41.71Z"/></svg>